G04 #@! TF.GenerationSoftware,KiCad,Pcbnew,7.0.1-0*
G04 #@! TF.CreationDate,2023-08-23T15:24:57+02:00*
G04 #@! TF.ProjectId,pumpkin,70756d70-6b69-46e2-9e6b-696361645f70,rev?*
G04 #@! TF.SameCoordinates,Original*
G04 #@! TF.FileFunction,Soldermask,Bot*
G04 #@! TF.FilePolarity,Negative*
%FSLAX46Y46*%
G04 Gerber Fmt 4.6, Leading zero omitted, Abs format (unit mm)*
G04 Created by KiCad (PCBNEW 7.0.1-0) date 2023-08-23 15:24:57*
%MOMM*%
%LPD*%
G01*
G04 APERTURE LIST*
G04 Aperture macros list*
%AMRoundRect*
0 Rectangle with rounded corners*
0 $1 Rounding radius*
0 $2 $3 $4 $5 $6 $7 $8 $9 X,Y pos of 4 corners*
0 Add a 4 corners polygon primitive as box body*
4,1,4,$2,$3,$4,$5,$6,$7,$8,$9,$2,$3,0*
0 Add four circle primitives for the rounded corners*
1,1,$1+$1,$2,$3*
1,1,$1+$1,$4,$5*
1,1,$1+$1,$6,$7*
1,1,$1+$1,$8,$9*
0 Add four rect primitives between the rounded corners*
20,1,$1+$1,$2,$3,$4,$5,0*
20,1,$1+$1,$4,$5,$6,$7,0*
20,1,$1+$1,$6,$7,$8,$9,0*
20,1,$1+$1,$8,$9,$2,$3,0*%
G04 Aperture macros list end*
%ADD10C,0.100000*%
%ADD11RoundRect,0.300800X0.325000X0.450000X-0.325000X0.450000X-0.325000X-0.450000X0.325000X-0.450000X0*%
%ADD12C,0.102600*%
%ADD13RoundRect,0.050800X0.596429X0.487235X-0.272905X0.720172X-0.596429X-0.487235X0.272905X-0.720172X0*%
%ADD14RoundRect,0.050800X0.502839X0.331139X-0.269902X0.538194X-0.502839X-0.331139X0.269902X-0.538194X0*%
%ADD15RoundRect,0.300800X0.350000X0.450000X-0.350000X0.450000X-0.350000X-0.450000X0.350000X-0.450000X0*%
%ADD16RoundRect,0.050800X0.302464X2.823741X-2.046767X1.968691X-0.302464X-2.823741X2.046767X-1.968691X0*%
%ADD17C,10.301600*%
%ADD18RoundRect,0.300800X-0.350000X-0.450000X0.350000X-0.450000X0.350000X0.450000X-0.350000X0.450000X0*%
G04 APERTURE END LIST*
D10*
X145160000Y-109390000D02*
X144650000Y-109390000D01*
X144650000Y-107470000D01*
X145160000Y-107470000D01*
X145160000Y-109390000D01*
G36*
X145160000Y-109390000D02*
G01*
X144650000Y-109390000D01*
X144650000Y-107470000D01*
X145160000Y-107470000D01*
X145160000Y-109390000D01*
G37*
X132180000Y-90370000D02*
X131670000Y-90370000D01*
X131670000Y-88450000D01*
X132180000Y-88450000D01*
X132180000Y-90370000D01*
G36*
X132180000Y-90370000D02*
G01*
X131670000Y-90370000D01*
X131670000Y-88450000D01*
X132180000Y-88450000D01*
X132180000Y-90370000D01*
G37*
X135130000Y-93490000D02*
X134620000Y-93490000D01*
X134620000Y-91570000D01*
X135130000Y-91570000D01*
X135130000Y-93490000D01*
G36*
X135130000Y-93490000D02*
G01*
X134620000Y-93490000D01*
X134620000Y-91570000D01*
X135130000Y-91570000D01*
X135130000Y-93490000D01*
G37*
X161960000Y-101140000D02*
X161450000Y-101140000D01*
X161450000Y-99220000D01*
X161960000Y-99220000D01*
X161960000Y-101140000D01*
G36*
X161960000Y-101140000D02*
G01*
X161450000Y-101140000D01*
X161450000Y-99220000D01*
X161960000Y-99220000D01*
X161960000Y-101140000D01*
G37*
X151230000Y-104720000D02*
X150720000Y-104720000D01*
X150720000Y-102800000D01*
X151230000Y-102800000D01*
X151230000Y-104720000D01*
G36*
X151230000Y-104720000D02*
G01*
X150720000Y-104720000D01*
X150720000Y-102800000D01*
X151230000Y-102800000D01*
X151230000Y-104720000D01*
G37*
X154690000Y-93460000D02*
X154180000Y-93460000D01*
X154180000Y-91540000D01*
X154690000Y-91540000D01*
X154690000Y-93460000D01*
G36*
X154690000Y-93460000D02*
G01*
X154180000Y-93460000D01*
X154180000Y-91540000D01*
X154690000Y-91540000D01*
X154690000Y-93460000D01*
G37*
X157550000Y-89990000D02*
X157040000Y-89990000D01*
X157040000Y-88070000D01*
X157550000Y-88070000D01*
X157550000Y-89990000D01*
G36*
X157550000Y-89990000D02*
G01*
X157040000Y-89990000D01*
X157040000Y-88070000D01*
X157550000Y-88070000D01*
X157550000Y-89990000D01*
G37*
X139530000Y-104770000D02*
X139020000Y-104770000D01*
X139020000Y-102850000D01*
X139530000Y-102850000D01*
X139530000Y-104770000D01*
G36*
X139530000Y-104770000D02*
G01*
X139020000Y-104770000D01*
X139020000Y-102850000D01*
X139530000Y-102850000D01*
X139530000Y-104770000D01*
G37*
X128450000Y-101320000D02*
X127940000Y-101320000D01*
X127940000Y-99400000D01*
X128450000Y-99400000D01*
X128450000Y-101320000D01*
G36*
X128450000Y-101320000D02*
G01*
X127940000Y-101320000D01*
X127940000Y-99400000D01*
X128450000Y-99400000D01*
X128450000Y-101320000D01*
G37*
X130840000Y-104120000D02*
X130330000Y-104120000D01*
X130330000Y-102200000D01*
X130840000Y-102200000D01*
X130840000Y-104120000D01*
G36*
X130840000Y-104120000D02*
G01*
X130330000Y-104120000D01*
X130330000Y-102200000D01*
X130840000Y-102200000D01*
X130840000Y-104120000D01*
G37*
X159440000Y-104270000D02*
X158930000Y-104270000D01*
X158930000Y-102350000D01*
X159440000Y-102350000D01*
X159440000Y-104270000D01*
G36*
X159440000Y-104270000D02*
G01*
X158930000Y-104270000D01*
X158930000Y-102350000D01*
X159440000Y-102350000D01*
X159440000Y-104270000D01*
G37*
D11*
X160215000Y-103330000D03*
X158165000Y-103330000D03*
D12*
X136348889Y-113668229D03*
X133451111Y-112891771D03*
D13*
X137610383Y-111858047D03*
X134712605Y-111081590D03*
X133263716Y-110693361D03*
D14*
X138855219Y-113200994D03*
X138285817Y-115326031D03*
X130944781Y-113359006D03*
X131514183Y-111233969D03*
D11*
X158322500Y-89020000D03*
X156272500Y-89020000D03*
D15*
X158140000Y-100860000D03*
X156140000Y-100860000D03*
D11*
X145930000Y-108390000D03*
X143880000Y-108390000D03*
X129222500Y-100340000D03*
X127172500Y-100340000D03*
X131615000Y-103140000D03*
X129565000Y-103140000D03*
X162730000Y-100180000D03*
X160680000Y-100180000D03*
D15*
X125070000Y-100350000D03*
X123070000Y-100350000D03*
X131710000Y-92560000D03*
X129710000Y-92560000D03*
X166100000Y-102310000D03*
X164100000Y-102310000D03*
D16*
X162170000Y-107530000D03*
X147886672Y-112728706D03*
D17*
X155028336Y-110129353D03*
D15*
X131530000Y-105760000D03*
X129530000Y-105760000D03*
X152000000Y-101230000D03*
X150000000Y-101230000D03*
D18*
X157540000Y-92380000D03*
X159540000Y-92380000D03*
D11*
X135892500Y-92550000D03*
X133842500Y-92550000D03*
D15*
X158380000Y-86550000D03*
X156380000Y-86550000D03*
X146020000Y-105160000D03*
X144020000Y-105160000D03*
D11*
X132950000Y-89410000D03*
X130900000Y-89410000D03*
X155465000Y-92490000D03*
X153415000Y-92490000D03*
D15*
X132970000Y-87050000D03*
X130970000Y-87050000D03*
D11*
X152002500Y-103770000D03*
X149952500Y-103770000D03*
X140305000Y-103810000D03*
X138255000Y-103810000D03*
D15*
X140350000Y-100830000D03*
X138350000Y-100830000D03*
G36*
X145364972Y-107760792D02*
G01*
X145366169Y-107762250D01*
X145365621Y-107764054D01*
X145358520Y-107771155D01*
X145314141Y-107871663D01*
X145306200Y-107940118D01*
X145306200Y-108839882D01*
X145314141Y-108908336D01*
X145358520Y-109008844D01*
X145365621Y-109015945D01*
X145366169Y-109017749D01*
X145364972Y-109019207D01*
X145210765Y-109083082D01*
X145208889Y-109082897D01*
X145208000Y-109081234D01*
X145208000Y-107698766D01*
X145208889Y-107697103D01*
X145210765Y-107696918D01*
X145364972Y-107760792D01*
G37*
G36*
X144601111Y-107697103D02*
G01*
X144602000Y-107698766D01*
X144602000Y-109081234D01*
X144601111Y-109082897D01*
X144599235Y-109083082D01*
X144445027Y-109019207D01*
X144443830Y-109017749D01*
X144444378Y-109015945D01*
X144451479Y-109008844D01*
X144495858Y-108908336D01*
X144503800Y-108839882D01*
X144503800Y-107940118D01*
X144495858Y-107871663D01*
X144451479Y-107771155D01*
X144444378Y-107764054D01*
X144443830Y-107762250D01*
X144445027Y-107760792D01*
X144599235Y-107696918D01*
X144601111Y-107697103D01*
G37*
G36*
X138971111Y-103112103D02*
G01*
X138972000Y-103113766D01*
X138972000Y-104506234D01*
X138971111Y-104507897D01*
X138969235Y-104508082D01*
X138815027Y-104444207D01*
X138813830Y-104442749D01*
X138814378Y-104440945D01*
X138826479Y-104428844D01*
X138870858Y-104328336D01*
X138878800Y-104259882D01*
X138878800Y-103360118D01*
X138870858Y-103291663D01*
X138826479Y-103191155D01*
X138814378Y-103179054D01*
X138813830Y-103177250D01*
X138815027Y-103175792D01*
X138969235Y-103111918D01*
X138971111Y-103112103D01*
G37*
G36*
X139734972Y-103185792D02*
G01*
X139736169Y-103187250D01*
X139735622Y-103189054D01*
X139733520Y-103191156D01*
X139689141Y-103291663D01*
X139681200Y-103360118D01*
X139681200Y-104259882D01*
X139689141Y-104328336D01*
X139733520Y-104428844D01*
X139735621Y-104430945D01*
X139736169Y-104432749D01*
X139734972Y-104434207D01*
X139580765Y-104498082D01*
X139578889Y-104497897D01*
X139578000Y-104496234D01*
X139578000Y-103123766D01*
X139578889Y-103122103D01*
X139580765Y-103121918D01*
X139734972Y-103185792D01*
G37*
G36*
X150671111Y-103074603D02*
G01*
X150672000Y-103076266D01*
X150672000Y-104463734D01*
X150671111Y-104465397D01*
X150669235Y-104465582D01*
X150515027Y-104401707D01*
X150513830Y-104400249D01*
X150514378Y-104398445D01*
X150523979Y-104388844D01*
X150568358Y-104288336D01*
X150576300Y-104219882D01*
X150576300Y-103320118D01*
X150568358Y-103251663D01*
X150523979Y-103151155D01*
X150514378Y-103141554D01*
X150513830Y-103139750D01*
X150515027Y-103138292D01*
X150669235Y-103074418D01*
X150671111Y-103074603D01*
G37*
G36*
X151434972Y-103143292D02*
G01*
X151436169Y-103144750D01*
X151435621Y-103146554D01*
X151431020Y-103151155D01*
X151386641Y-103251663D01*
X151378700Y-103320118D01*
X151378700Y-104219882D01*
X151386641Y-104288336D01*
X151431020Y-104388844D01*
X151435621Y-104393445D01*
X151436169Y-104395249D01*
X151434972Y-104396707D01*
X151280765Y-104460582D01*
X151278889Y-104460397D01*
X151278000Y-104458734D01*
X151278000Y-103081266D01*
X151278889Y-103079603D01*
X151280765Y-103079418D01*
X151434972Y-103143292D01*
G37*
G36*
X158881111Y-102632103D02*
G01*
X158882000Y-102633766D01*
X158882000Y-104026234D01*
X158881111Y-104027897D01*
X158879235Y-104028082D01*
X158725027Y-103964207D01*
X158723830Y-103962749D01*
X158724378Y-103960945D01*
X158736479Y-103948844D01*
X158780858Y-103848336D01*
X158788800Y-103779882D01*
X158788800Y-102880118D01*
X158780858Y-102811663D01*
X158736479Y-102711155D01*
X158724378Y-102699054D01*
X158723830Y-102697250D01*
X158725027Y-102695792D01*
X158879235Y-102631918D01*
X158881111Y-102632103D01*
G37*
G36*
X159644972Y-102705792D02*
G01*
X159646169Y-102707250D01*
X159645622Y-102709054D01*
X159643520Y-102711156D01*
X159599141Y-102811663D01*
X159591200Y-102880118D01*
X159591200Y-103779882D01*
X159599141Y-103848336D01*
X159643520Y-103948844D01*
X159645621Y-103950945D01*
X159646169Y-103952749D01*
X159644972Y-103954207D01*
X159490765Y-104018082D01*
X159488889Y-104017897D01*
X159488000Y-104016234D01*
X159488000Y-102643766D01*
X159488889Y-102642103D01*
X159490765Y-102641918D01*
X159644972Y-102705792D01*
G37*
G36*
X130281111Y-102442103D02*
G01*
X130282000Y-102443766D01*
X130282000Y-103836234D01*
X130281111Y-103837897D01*
X130279235Y-103838082D01*
X130125027Y-103774207D01*
X130123830Y-103772749D01*
X130124378Y-103770945D01*
X130136479Y-103758844D01*
X130180858Y-103658336D01*
X130188800Y-103589882D01*
X130188800Y-102690118D01*
X130180858Y-102621663D01*
X130136479Y-102521155D01*
X130124378Y-102509054D01*
X130123830Y-102507250D01*
X130125027Y-102505792D01*
X130279235Y-102441918D01*
X130281111Y-102442103D01*
G37*
G36*
X131044972Y-102515792D02*
G01*
X131046169Y-102517250D01*
X131045622Y-102519054D01*
X131043520Y-102521156D01*
X130999141Y-102621663D01*
X130991200Y-102690118D01*
X130991200Y-103589882D01*
X130999141Y-103658336D01*
X131043520Y-103758844D01*
X131045621Y-103760945D01*
X131046169Y-103762749D01*
X131044972Y-103764207D01*
X130890765Y-103828082D01*
X130888889Y-103827897D01*
X130888000Y-103826234D01*
X130888000Y-102453766D01*
X130888889Y-102452103D01*
X130890765Y-102451918D01*
X131044972Y-102515792D01*
G37*
G36*
X127891111Y-99644603D02*
G01*
X127892000Y-99646266D01*
X127892000Y-101033734D01*
X127891111Y-101035397D01*
X127889235Y-101035582D01*
X127735027Y-100971707D01*
X127733830Y-100970249D01*
X127734378Y-100968445D01*
X127743979Y-100958844D01*
X127788358Y-100858336D01*
X127796300Y-100789882D01*
X127796300Y-99890118D01*
X127788358Y-99821663D01*
X127743979Y-99721155D01*
X127734378Y-99711554D01*
X127733830Y-99709750D01*
X127735027Y-99708292D01*
X127889235Y-99644418D01*
X127891111Y-99644603D01*
G37*
G36*
X128654972Y-99713292D02*
G01*
X128656169Y-99714750D01*
X128655621Y-99716554D01*
X128651020Y-99721155D01*
X128606641Y-99821663D01*
X128598700Y-99890118D01*
X128598700Y-100789882D01*
X128606641Y-100858336D01*
X128651020Y-100958844D01*
X128655621Y-100963445D01*
X128656169Y-100965249D01*
X128654972Y-100966707D01*
X128500765Y-101030582D01*
X128498889Y-101030397D01*
X128498000Y-101028734D01*
X128498000Y-99651266D01*
X128498889Y-99649603D01*
X128500765Y-99649418D01*
X128654972Y-99713292D01*
G37*
G36*
X162164972Y-99550792D02*
G01*
X162166169Y-99552250D01*
X162165621Y-99554054D01*
X162158520Y-99561155D01*
X162114141Y-99661663D01*
X162106200Y-99730118D01*
X162106200Y-100629882D01*
X162114141Y-100698336D01*
X162158520Y-100798844D01*
X162165621Y-100805945D01*
X162166169Y-100807749D01*
X162164972Y-100809207D01*
X162010765Y-100873082D01*
X162008889Y-100872897D01*
X162008000Y-100871234D01*
X162008000Y-99488766D01*
X162008889Y-99487103D01*
X162010765Y-99486918D01*
X162164972Y-99550792D01*
G37*
G36*
X161401111Y-99487103D02*
G01*
X161402000Y-99488766D01*
X161402000Y-100871234D01*
X161401111Y-100872897D01*
X161399235Y-100873082D01*
X161245027Y-100809207D01*
X161243830Y-100807749D01*
X161244378Y-100805945D01*
X161251479Y-100798844D01*
X161295858Y-100698336D01*
X161303800Y-100629882D01*
X161303800Y-99730118D01*
X161295858Y-99661663D01*
X161251479Y-99561155D01*
X161244378Y-99554054D01*
X161243830Y-99552250D01*
X161245027Y-99550792D01*
X161399235Y-99486918D01*
X161401111Y-99487103D01*
G37*
G36*
X135334972Y-91913292D02*
G01*
X135336169Y-91914750D01*
X135335621Y-91916554D01*
X135321020Y-91931155D01*
X135276641Y-92031663D01*
X135268700Y-92100118D01*
X135268700Y-92999882D01*
X135276641Y-93068336D01*
X135321020Y-93168844D01*
X135335621Y-93183445D01*
X135336169Y-93185249D01*
X135334972Y-93186707D01*
X135180765Y-93250582D01*
X135178889Y-93250397D01*
X135178000Y-93248734D01*
X135178000Y-91851266D01*
X135178889Y-91849603D01*
X135180765Y-91849418D01*
X135334972Y-91913292D01*
G37*
G36*
X134571111Y-91864603D02*
G01*
X134572000Y-91866266D01*
X134572000Y-93233734D01*
X134571111Y-93235397D01*
X134569235Y-93235582D01*
X134414964Y-93171681D01*
X134413873Y-93170577D01*
X134413899Y-93169025D01*
X134458358Y-93068336D01*
X134466300Y-92999882D01*
X134466300Y-92100118D01*
X134458358Y-92031663D01*
X134413899Y-91930974D01*
X134413873Y-91929422D01*
X134414964Y-91928318D01*
X134569235Y-91864418D01*
X134571111Y-91864603D01*
G37*
G36*
X154131111Y-91792103D02*
G01*
X154132000Y-91793766D01*
X154132000Y-93186234D01*
X154131111Y-93187897D01*
X154129235Y-93188082D01*
X153975027Y-93124207D01*
X153973830Y-93122749D01*
X153974378Y-93120945D01*
X153986479Y-93108844D01*
X154030858Y-93008336D01*
X154038800Y-92939882D01*
X154038800Y-92040118D01*
X154030858Y-91971663D01*
X153986479Y-91871155D01*
X153974378Y-91859054D01*
X153973830Y-91857250D01*
X153975027Y-91855792D01*
X154129235Y-91791918D01*
X154131111Y-91792103D01*
G37*
G36*
X154894972Y-91865792D02*
G01*
X154896169Y-91867250D01*
X154895622Y-91869054D01*
X154893520Y-91871156D01*
X154849141Y-91971663D01*
X154841200Y-92040118D01*
X154841200Y-92939882D01*
X154849141Y-93008336D01*
X154893520Y-93108844D01*
X154895621Y-93110945D01*
X154896169Y-93112749D01*
X154894972Y-93114207D01*
X154740765Y-93178082D01*
X154738889Y-93177897D01*
X154738000Y-93176234D01*
X154738000Y-91803766D01*
X154738889Y-91802103D01*
X154740765Y-91801918D01*
X154894972Y-91865792D01*
G37*
G36*
X132384972Y-88780792D02*
G01*
X132386169Y-88782250D01*
X132385621Y-88784054D01*
X132378520Y-88791155D01*
X132334141Y-88891663D01*
X132326200Y-88960118D01*
X132326200Y-89859882D01*
X132334141Y-89928336D01*
X132378520Y-90028844D01*
X132385621Y-90035945D01*
X132386169Y-90037749D01*
X132384972Y-90039207D01*
X132230765Y-90103082D01*
X132228889Y-90102897D01*
X132228000Y-90101234D01*
X132228000Y-88718766D01*
X132228889Y-88717103D01*
X132230765Y-88716918D01*
X132384972Y-88780792D01*
G37*
G36*
X131621111Y-88717103D02*
G01*
X131622000Y-88718766D01*
X131622000Y-90101234D01*
X131621111Y-90102897D01*
X131619235Y-90103082D01*
X131465027Y-90039207D01*
X131463830Y-90037749D01*
X131464378Y-90035945D01*
X131471479Y-90028844D01*
X131515858Y-89928336D01*
X131523800Y-89859882D01*
X131523800Y-88960118D01*
X131515858Y-88891663D01*
X131471479Y-88791155D01*
X131464378Y-88784054D01*
X131463830Y-88782250D01*
X131465027Y-88780792D01*
X131619235Y-88716918D01*
X131621111Y-88717103D01*
G37*
G36*
X156991111Y-88324603D02*
G01*
X156992000Y-88326266D01*
X156992000Y-89713734D01*
X156991111Y-89715397D01*
X156989235Y-89715582D01*
X156835027Y-89651707D01*
X156833830Y-89650249D01*
X156834378Y-89648445D01*
X156843979Y-89638844D01*
X156888358Y-89538336D01*
X156896300Y-89469882D01*
X156896300Y-88570118D01*
X156888358Y-88501663D01*
X156843979Y-88401155D01*
X156834378Y-88391554D01*
X156833830Y-88389750D01*
X156835027Y-88388292D01*
X156989235Y-88324418D01*
X156991111Y-88324603D01*
G37*
G36*
X157754972Y-88393292D02*
G01*
X157756169Y-88394750D01*
X157755621Y-88396554D01*
X157751020Y-88401155D01*
X157706641Y-88501663D01*
X157698700Y-88570118D01*
X157698700Y-89469882D01*
X157706641Y-89538336D01*
X157751020Y-89638844D01*
X157755621Y-89643445D01*
X157756169Y-89645249D01*
X157754972Y-89646707D01*
X157600765Y-89710582D01*
X157598889Y-89710397D01*
X157598000Y-89708734D01*
X157598000Y-88331266D01*
X157598889Y-88329603D01*
X157600765Y-88329418D01*
X157754972Y-88393292D01*
G37*
M02*
