G04 #@! TF.GenerationSoftware,KiCad,Pcbnew,7.0.1-0*
G04 #@! TF.CreationDate,2023-08-23T15:24:57+02:00*
G04 #@! TF.ProjectId,pumpkin,70756d70-6b69-46e2-9e6b-696361645f70,rev?*
G04 #@! TF.SameCoordinates,Original*
G04 #@! TF.FileFunction,Legend,Bot*
G04 #@! TF.FilePolarity,Positive*
%FSLAX46Y46*%
G04 Gerber Fmt 4.6, Leading zero omitted, Abs format (unit mm)*
G04 Created by KiCad (PCBNEW 7.0.1-0) date 2023-08-23 15:24:57*
%MOMM*%
%LPD*%
G01*
G04 APERTURE LIST*
G04 Aperture macros list*
%AMRoundRect*
0 Rectangle with rounded corners*
0 $1 Rounding radius*
0 $2 $3 $4 $5 $6 $7 $8 $9 X,Y pos of 4 corners*
0 Add a 4 corners polygon primitive as box body*
4,1,4,$2,$3,$4,$5,$6,$7,$8,$9,$2,$3,0*
0 Add four circle primitives for the rounded corners*
1,1,$1+$1,$2,$3*
1,1,$1+$1,$4,$5*
1,1,$1+$1,$6,$7*
1,1,$1+$1,$8,$9*
0 Add four rect primitives between the rounded corners*
20,1,$1+$1,$2,$3,$4,$5,0*
20,1,$1+$1,$4,$5,$6,$7,0*
20,1,$1+$1,$6,$7,$8,$9,0*
20,1,$1+$1,$8,$9,$2,$3,0*%
G04 Aperture macros list end*
%ADD10C,0.200000*%
%ADD11C,0.125000*%
%ADD12C,0.250000*%
%ADD13C,0.120000*%
%ADD14C,0.100000*%
%ADD15RoundRect,0.300800X0.325000X0.450000X-0.325000X0.450000X-0.325000X-0.450000X0.325000X-0.450000X0*%
%ADD16C,0.102600*%
%ADD17RoundRect,0.050800X0.596429X0.487235X-0.272905X0.720172X-0.596429X-0.487235X0.272905X-0.720172X0*%
%ADD18RoundRect,0.050800X0.502839X0.331139X-0.269902X0.538194X-0.502839X-0.331139X0.269902X-0.538194X0*%
%ADD19RoundRect,0.300800X0.350000X0.450000X-0.350000X0.450000X-0.350000X-0.450000X0.350000X-0.450000X0*%
%ADD20RoundRect,0.050800X0.302464X2.823741X-2.046767X1.968691X-0.302464X-2.823741X2.046767X-1.968691X0*%
%ADD21C,10.301600*%
%ADD22RoundRect,0.300800X-0.350000X-0.450000X0.350000X-0.450000X0.350000X0.450000X-0.350000X0.450000X0*%
G04 APERTURE END LIST*
D10*
X148810952Y-115502095D02*
X148810952Y-116073523D01*
X148810952Y-116073523D02*
X148849047Y-116187809D01*
X148849047Y-116187809D02*
X148925238Y-116264000D01*
X148925238Y-116264000D02*
X149039523Y-116302095D01*
X149039523Y-116302095D02*
X149115714Y-116302095D01*
X148049047Y-116302095D02*
X148429999Y-116302095D01*
X148429999Y-116302095D02*
X148429999Y-115502095D01*
X147325237Y-116225904D02*
X147363333Y-116264000D01*
X147363333Y-116264000D02*
X147477618Y-116302095D01*
X147477618Y-116302095D02*
X147553809Y-116302095D01*
X147553809Y-116302095D02*
X147668095Y-116264000D01*
X147668095Y-116264000D02*
X147744285Y-116187809D01*
X147744285Y-116187809D02*
X147782380Y-116111619D01*
X147782380Y-116111619D02*
X147820476Y-115959238D01*
X147820476Y-115959238D02*
X147820476Y-115844952D01*
X147820476Y-115844952D02*
X147782380Y-115692571D01*
X147782380Y-115692571D02*
X147744285Y-115616380D01*
X147744285Y-115616380D02*
X147668095Y-115540190D01*
X147668095Y-115540190D02*
X147553809Y-115502095D01*
X147553809Y-115502095D02*
X147477618Y-115502095D01*
X147477618Y-115502095D02*
X147363333Y-115540190D01*
X147363333Y-115540190D02*
X147325237Y-115578285D01*
X146753809Y-115502095D02*
X146753809Y-116073523D01*
X146753809Y-116073523D02*
X146791904Y-116187809D01*
X146791904Y-116187809D02*
X146868095Y-116264000D01*
X146868095Y-116264000D02*
X146982380Y-116302095D01*
X146982380Y-116302095D02*
X147058571Y-116302095D01*
X145991904Y-116302095D02*
X146372856Y-116302095D01*
X146372856Y-116302095D02*
X146372856Y-115502095D01*
X145268094Y-116225904D02*
X145306190Y-116264000D01*
X145306190Y-116264000D02*
X145420475Y-116302095D01*
X145420475Y-116302095D02*
X145496666Y-116302095D01*
X145496666Y-116302095D02*
X145610952Y-116264000D01*
X145610952Y-116264000D02*
X145687142Y-116187809D01*
X145687142Y-116187809D02*
X145725237Y-116111619D01*
X145725237Y-116111619D02*
X145763333Y-115959238D01*
X145763333Y-115959238D02*
X145763333Y-115844952D01*
X145763333Y-115844952D02*
X145725237Y-115692571D01*
X145725237Y-115692571D02*
X145687142Y-115616380D01*
X145687142Y-115616380D02*
X145610952Y-115540190D01*
X145610952Y-115540190D02*
X145496666Y-115502095D01*
X145496666Y-115502095D02*
X145420475Y-115502095D01*
X145420475Y-115502095D02*
X145306190Y-115540190D01*
X145306190Y-115540190D02*
X145268094Y-115578285D01*
X144696666Y-115502095D02*
X144696666Y-116073523D01*
X144696666Y-116073523D02*
X144734761Y-116187809D01*
X144734761Y-116187809D02*
X144810952Y-116264000D01*
X144810952Y-116264000D02*
X144925237Y-116302095D01*
X144925237Y-116302095D02*
X145001428Y-116302095D01*
X143934761Y-116302095D02*
X144315713Y-116302095D01*
X144315713Y-116302095D02*
X144315713Y-115502095D01*
X143210951Y-116225904D02*
X143249047Y-116264000D01*
X143249047Y-116264000D02*
X143363332Y-116302095D01*
X143363332Y-116302095D02*
X143439523Y-116302095D01*
X143439523Y-116302095D02*
X143553809Y-116264000D01*
X143553809Y-116264000D02*
X143629999Y-116187809D01*
X143629999Y-116187809D02*
X143668094Y-116111619D01*
X143668094Y-116111619D02*
X143706190Y-115959238D01*
X143706190Y-115959238D02*
X143706190Y-115844952D01*
X143706190Y-115844952D02*
X143668094Y-115692571D01*
X143668094Y-115692571D02*
X143629999Y-115616380D01*
X143629999Y-115616380D02*
X143553809Y-115540190D01*
X143553809Y-115540190D02*
X143439523Y-115502095D01*
X143439523Y-115502095D02*
X143363332Y-115502095D01*
X143363332Y-115502095D02*
X143249047Y-115540190D01*
X143249047Y-115540190D02*
X143210951Y-115578285D01*
X142639523Y-115502095D02*
X142639523Y-116073523D01*
X142639523Y-116073523D02*
X142677618Y-116187809D01*
X142677618Y-116187809D02*
X142753809Y-116264000D01*
X142753809Y-116264000D02*
X142868094Y-116302095D01*
X142868094Y-116302095D02*
X142944285Y-116302095D01*
X141877618Y-116302095D02*
X142258570Y-116302095D01*
X142258570Y-116302095D02*
X142258570Y-115502095D01*
X141153808Y-116225904D02*
X141191904Y-116264000D01*
X141191904Y-116264000D02*
X141306189Y-116302095D01*
X141306189Y-116302095D02*
X141382380Y-116302095D01*
X141382380Y-116302095D02*
X141496666Y-116264000D01*
X141496666Y-116264000D02*
X141572856Y-116187809D01*
X141572856Y-116187809D02*
X141610951Y-116111619D01*
X141610951Y-116111619D02*
X141649047Y-115959238D01*
X141649047Y-115959238D02*
X141649047Y-115844952D01*
X141649047Y-115844952D02*
X141610951Y-115692571D01*
X141610951Y-115692571D02*
X141572856Y-115616380D01*
X141572856Y-115616380D02*
X141496666Y-115540190D01*
X141496666Y-115540190D02*
X141382380Y-115502095D01*
X141382380Y-115502095D02*
X141306189Y-115502095D01*
X141306189Y-115502095D02*
X141191904Y-115540190D01*
X141191904Y-115540190D02*
X141153808Y-115578285D01*
D11*
X157391428Y-96398214D02*
X157391428Y-95648214D01*
X157070000Y-96398214D02*
X157070000Y-96005357D01*
X157070000Y-96005357D02*
X157105714Y-95933928D01*
X157105714Y-95933928D02*
X157177142Y-95898214D01*
X157177142Y-95898214D02*
X157284285Y-95898214D01*
X157284285Y-95898214D02*
X157355714Y-95933928D01*
X157355714Y-95933928D02*
X157391428Y-95969642D01*
X156820000Y-95898214D02*
X156534286Y-95898214D01*
X156712857Y-95648214D02*
X156712857Y-96291071D01*
X156712857Y-96291071D02*
X156677143Y-96362500D01*
X156677143Y-96362500D02*
X156605714Y-96398214D01*
X156605714Y-96398214D02*
X156534286Y-96398214D01*
X156391429Y-95898214D02*
X156105715Y-95898214D01*
X156284286Y-95648214D02*
X156284286Y-96291071D01*
X156284286Y-96291071D02*
X156248572Y-96362500D01*
X156248572Y-96362500D02*
X156177143Y-96398214D01*
X156177143Y-96398214D02*
X156105715Y-96398214D01*
X155855715Y-95898214D02*
X155855715Y-96648214D01*
X155855715Y-95933928D02*
X155784287Y-95898214D01*
X155784287Y-95898214D02*
X155641429Y-95898214D01*
X155641429Y-95898214D02*
X155570001Y-95933928D01*
X155570001Y-95933928D02*
X155534287Y-95969642D01*
X155534287Y-95969642D02*
X155498572Y-96041071D01*
X155498572Y-96041071D02*
X155498572Y-96255357D01*
X155498572Y-96255357D02*
X155534287Y-96326785D01*
X155534287Y-96326785D02*
X155570001Y-96362500D01*
X155570001Y-96362500D02*
X155641429Y-96398214D01*
X155641429Y-96398214D02*
X155784287Y-96398214D01*
X155784287Y-96398214D02*
X155855715Y-96362500D01*
X155212858Y-96362500D02*
X155141430Y-96398214D01*
X155141430Y-96398214D02*
X154998573Y-96398214D01*
X154998573Y-96398214D02*
X154927144Y-96362500D01*
X154927144Y-96362500D02*
X154891430Y-96291071D01*
X154891430Y-96291071D02*
X154891430Y-96255357D01*
X154891430Y-96255357D02*
X154927144Y-96183928D01*
X154927144Y-96183928D02*
X154998573Y-96148214D01*
X154998573Y-96148214D02*
X155105716Y-96148214D01*
X155105716Y-96148214D02*
X155177144Y-96112500D01*
X155177144Y-96112500D02*
X155212858Y-96041071D01*
X155212858Y-96041071D02*
X155212858Y-96005357D01*
X155212858Y-96005357D02*
X155177144Y-95933928D01*
X155177144Y-95933928D02*
X155105716Y-95898214D01*
X155105716Y-95898214D02*
X154998573Y-95898214D01*
X154998573Y-95898214D02*
X154927144Y-95933928D01*
X154570001Y-96326785D02*
X154534287Y-96362500D01*
X154534287Y-96362500D02*
X154570001Y-96398214D01*
X154570001Y-96398214D02*
X154605715Y-96362500D01*
X154605715Y-96362500D02*
X154570001Y-96326785D01*
X154570001Y-96326785D02*
X154570001Y-96398214D01*
X154570001Y-95933928D02*
X154534287Y-95969642D01*
X154534287Y-95969642D02*
X154570001Y-96005357D01*
X154570001Y-96005357D02*
X154605715Y-95969642D01*
X154605715Y-95969642D02*
X154570001Y-95933928D01*
X154570001Y-95933928D02*
X154570001Y-96005357D01*
X153677144Y-95612500D02*
X154320001Y-96576785D01*
X152891430Y-95612500D02*
X153534287Y-96576785D01*
X152320002Y-95898214D02*
X152320002Y-96505357D01*
X152320002Y-96505357D02*
X152355716Y-96576785D01*
X152355716Y-96576785D02*
X152391430Y-96612500D01*
X152391430Y-96612500D02*
X152462859Y-96648214D01*
X152462859Y-96648214D02*
X152570002Y-96648214D01*
X152570002Y-96648214D02*
X152641430Y-96612500D01*
X152320002Y-96362500D02*
X152391430Y-96398214D01*
X152391430Y-96398214D02*
X152534287Y-96398214D01*
X152534287Y-96398214D02*
X152605716Y-96362500D01*
X152605716Y-96362500D02*
X152641430Y-96326785D01*
X152641430Y-96326785D02*
X152677144Y-96255357D01*
X152677144Y-96255357D02*
X152677144Y-96041071D01*
X152677144Y-96041071D02*
X152641430Y-95969642D01*
X152641430Y-95969642D02*
X152605716Y-95933928D01*
X152605716Y-95933928D02*
X152534287Y-95898214D01*
X152534287Y-95898214D02*
X152391430Y-95898214D01*
X152391430Y-95898214D02*
X152320002Y-95933928D01*
X151962859Y-96398214D02*
X151962859Y-95898214D01*
X151962859Y-95648214D02*
X151998573Y-95683928D01*
X151998573Y-95683928D02*
X151962859Y-95719642D01*
X151962859Y-95719642D02*
X151927145Y-95683928D01*
X151927145Y-95683928D02*
X151962859Y-95648214D01*
X151962859Y-95648214D02*
X151962859Y-95719642D01*
X151712859Y-95898214D02*
X151427145Y-95898214D01*
X151605716Y-95648214D02*
X151605716Y-96291071D01*
X151605716Y-96291071D02*
X151570002Y-96362500D01*
X151570002Y-96362500D02*
X151498573Y-96398214D01*
X151498573Y-96398214D02*
X151427145Y-96398214D01*
X151177145Y-96398214D02*
X151177145Y-95648214D01*
X150855717Y-96398214D02*
X150855717Y-96005357D01*
X150855717Y-96005357D02*
X150891431Y-95933928D01*
X150891431Y-95933928D02*
X150962859Y-95898214D01*
X150962859Y-95898214D02*
X151070002Y-95898214D01*
X151070002Y-95898214D02*
X151141431Y-95933928D01*
X151141431Y-95933928D02*
X151177145Y-95969642D01*
X150177146Y-95898214D02*
X150177146Y-96398214D01*
X150498574Y-95898214D02*
X150498574Y-96291071D01*
X150498574Y-96291071D02*
X150462860Y-96362500D01*
X150462860Y-96362500D02*
X150391431Y-96398214D01*
X150391431Y-96398214D02*
X150284288Y-96398214D01*
X150284288Y-96398214D02*
X150212860Y-96362500D01*
X150212860Y-96362500D02*
X150177146Y-96326785D01*
X149820003Y-96398214D02*
X149820003Y-95648214D01*
X149820003Y-95933928D02*
X149748575Y-95898214D01*
X149748575Y-95898214D02*
X149605717Y-95898214D01*
X149605717Y-95898214D02*
X149534289Y-95933928D01*
X149534289Y-95933928D02*
X149498575Y-95969642D01*
X149498575Y-95969642D02*
X149462860Y-96041071D01*
X149462860Y-96041071D02*
X149462860Y-96255357D01*
X149462860Y-96255357D02*
X149498575Y-96326785D01*
X149498575Y-96326785D02*
X149534289Y-96362500D01*
X149534289Y-96362500D02*
X149605717Y-96398214D01*
X149605717Y-96398214D02*
X149748575Y-96398214D01*
X149748575Y-96398214D02*
X149820003Y-96362500D01*
X149141432Y-96326785D02*
X149105718Y-96362500D01*
X149105718Y-96362500D02*
X149141432Y-96398214D01*
X149141432Y-96398214D02*
X149177146Y-96362500D01*
X149177146Y-96362500D02*
X149141432Y-96326785D01*
X149141432Y-96326785D02*
X149141432Y-96398214D01*
X148462861Y-96362500D02*
X148534289Y-96398214D01*
X148534289Y-96398214D02*
X148677146Y-96398214D01*
X148677146Y-96398214D02*
X148748575Y-96362500D01*
X148748575Y-96362500D02*
X148784289Y-96326785D01*
X148784289Y-96326785D02*
X148820003Y-96255357D01*
X148820003Y-96255357D02*
X148820003Y-96041071D01*
X148820003Y-96041071D02*
X148784289Y-95969642D01*
X148784289Y-95969642D02*
X148748575Y-95933928D01*
X148748575Y-95933928D02*
X148677146Y-95898214D01*
X148677146Y-95898214D02*
X148534289Y-95898214D01*
X148534289Y-95898214D02*
X148462861Y-95933928D01*
X148034289Y-96398214D02*
X148105718Y-96362500D01*
X148105718Y-96362500D02*
X148141432Y-96326785D01*
X148141432Y-96326785D02*
X148177146Y-96255357D01*
X148177146Y-96255357D02*
X148177146Y-96041071D01*
X148177146Y-96041071D02*
X148141432Y-95969642D01*
X148141432Y-95969642D02*
X148105718Y-95933928D01*
X148105718Y-95933928D02*
X148034289Y-95898214D01*
X148034289Y-95898214D02*
X147927146Y-95898214D01*
X147927146Y-95898214D02*
X147855718Y-95933928D01*
X147855718Y-95933928D02*
X147820004Y-95969642D01*
X147820004Y-95969642D02*
X147784289Y-96041071D01*
X147784289Y-96041071D02*
X147784289Y-96255357D01*
X147784289Y-96255357D02*
X147820004Y-96326785D01*
X147820004Y-96326785D02*
X147855718Y-96362500D01*
X147855718Y-96362500D02*
X147927146Y-96398214D01*
X147927146Y-96398214D02*
X148034289Y-96398214D01*
X147462861Y-96398214D02*
X147462861Y-95898214D01*
X147462861Y-95969642D02*
X147427147Y-95933928D01*
X147427147Y-95933928D02*
X147355718Y-95898214D01*
X147355718Y-95898214D02*
X147248575Y-95898214D01*
X147248575Y-95898214D02*
X147177147Y-95933928D01*
X147177147Y-95933928D02*
X147141433Y-96005357D01*
X147141433Y-96005357D02*
X147141433Y-96398214D01*
X147141433Y-96005357D02*
X147105718Y-95933928D01*
X147105718Y-95933928D02*
X147034290Y-95898214D01*
X147034290Y-95898214D02*
X146927147Y-95898214D01*
X146927147Y-95898214D02*
X146855718Y-95933928D01*
X146855718Y-95933928D02*
X146820004Y-96005357D01*
X146820004Y-96005357D02*
X146820004Y-96398214D01*
X145927147Y-95612500D02*
X146570004Y-96576785D01*
X145355719Y-95898214D02*
X145355719Y-96505357D01*
X145355719Y-96505357D02*
X145391433Y-96576785D01*
X145391433Y-96576785D02*
X145427147Y-96612500D01*
X145427147Y-96612500D02*
X145498576Y-96648214D01*
X145498576Y-96648214D02*
X145605719Y-96648214D01*
X145605719Y-96648214D02*
X145677147Y-96612500D01*
X145355719Y-96362500D02*
X145427147Y-96398214D01*
X145427147Y-96398214D02*
X145570004Y-96398214D01*
X145570004Y-96398214D02*
X145641433Y-96362500D01*
X145641433Y-96362500D02*
X145677147Y-96326785D01*
X145677147Y-96326785D02*
X145712861Y-96255357D01*
X145712861Y-96255357D02*
X145712861Y-96041071D01*
X145712861Y-96041071D02*
X145677147Y-95969642D01*
X145677147Y-95969642D02*
X145641433Y-95933928D01*
X145641433Y-95933928D02*
X145570004Y-95898214D01*
X145570004Y-95898214D02*
X145427147Y-95898214D01*
X145427147Y-95898214D02*
X145355719Y-95933928D01*
X144998576Y-95898214D02*
X144998576Y-96541071D01*
X144998576Y-96541071D02*
X145034290Y-96612500D01*
X145034290Y-96612500D02*
X145105719Y-96648214D01*
X145105719Y-96648214D02*
X145141433Y-96648214D01*
X144998576Y-95648214D02*
X145034290Y-95683928D01*
X145034290Y-95683928D02*
X144998576Y-95719642D01*
X144998576Y-95719642D02*
X144962862Y-95683928D01*
X144962862Y-95683928D02*
X144998576Y-95648214D01*
X144998576Y-95648214D02*
X144998576Y-95719642D01*
X144534290Y-96398214D02*
X144605719Y-96362500D01*
X144605719Y-96362500D02*
X144641433Y-96291071D01*
X144641433Y-96291071D02*
X144641433Y-95648214D01*
X144248576Y-95898214D02*
X144248576Y-96648214D01*
X144248576Y-95933928D02*
X144177148Y-95898214D01*
X144177148Y-95898214D02*
X144034290Y-95898214D01*
X144034290Y-95898214D02*
X143962862Y-95933928D01*
X143962862Y-95933928D02*
X143927148Y-95969642D01*
X143927148Y-95969642D02*
X143891433Y-96041071D01*
X143891433Y-96041071D02*
X143891433Y-96255357D01*
X143891433Y-96255357D02*
X143927148Y-96326785D01*
X143927148Y-96326785D02*
X143962862Y-96362500D01*
X143962862Y-96362500D02*
X144034290Y-96398214D01*
X144034290Y-96398214D02*
X144177148Y-96398214D01*
X144177148Y-96398214D02*
X144248576Y-96362500D01*
X143605719Y-95719642D02*
X143570005Y-95683928D01*
X143570005Y-95683928D02*
X143498577Y-95648214D01*
X143498577Y-95648214D02*
X143320005Y-95648214D01*
X143320005Y-95648214D02*
X143248577Y-95683928D01*
X143248577Y-95683928D02*
X143212862Y-95719642D01*
X143212862Y-95719642D02*
X143177148Y-95791071D01*
X143177148Y-95791071D02*
X143177148Y-95862500D01*
X143177148Y-95862500D02*
X143212862Y-95969642D01*
X143212862Y-95969642D02*
X143641434Y-96398214D01*
X143641434Y-96398214D02*
X143177148Y-96398214D01*
X142498576Y-95648214D02*
X142855719Y-95648214D01*
X142855719Y-95648214D02*
X142891433Y-96005357D01*
X142891433Y-96005357D02*
X142855719Y-95969642D01*
X142855719Y-95969642D02*
X142784291Y-95933928D01*
X142784291Y-95933928D02*
X142605719Y-95933928D01*
X142605719Y-95933928D02*
X142534291Y-95969642D01*
X142534291Y-95969642D02*
X142498576Y-96005357D01*
X142498576Y-96005357D02*
X142462862Y-96076785D01*
X142462862Y-96076785D02*
X142462862Y-96255357D01*
X142462862Y-96255357D02*
X142498576Y-96326785D01*
X142498576Y-96326785D02*
X142534291Y-96362500D01*
X142534291Y-96362500D02*
X142605719Y-96398214D01*
X142605719Y-96398214D02*
X142784291Y-96398214D01*
X142784291Y-96398214D02*
X142855719Y-96362500D01*
X142855719Y-96362500D02*
X142891433Y-96326785D01*
X141605719Y-95612500D02*
X142248576Y-96576785D01*
X141355719Y-96398214D02*
X141355719Y-95648214D01*
X141284291Y-96112500D02*
X141070005Y-96398214D01*
X141070005Y-95898214D02*
X141355719Y-96183928D01*
X140748576Y-96398214D02*
X140748576Y-95898214D01*
X140748576Y-95648214D02*
X140784290Y-95683928D01*
X140784290Y-95683928D02*
X140748576Y-95719642D01*
X140748576Y-95719642D02*
X140712862Y-95683928D01*
X140712862Y-95683928D02*
X140748576Y-95648214D01*
X140748576Y-95648214D02*
X140748576Y-95719642D01*
X140070005Y-96362500D02*
X140141433Y-96398214D01*
X140141433Y-96398214D02*
X140284290Y-96398214D01*
X140284290Y-96398214D02*
X140355719Y-96362500D01*
X140355719Y-96362500D02*
X140391433Y-96326785D01*
X140391433Y-96326785D02*
X140427147Y-96255357D01*
X140427147Y-96255357D02*
X140427147Y-96041071D01*
X140427147Y-96041071D02*
X140391433Y-95969642D01*
X140391433Y-95969642D02*
X140355719Y-95933928D01*
X140355719Y-95933928D02*
X140284290Y-95898214D01*
X140284290Y-95898214D02*
X140141433Y-95898214D01*
X140141433Y-95898214D02*
X140070005Y-95933928D01*
X139427148Y-96398214D02*
X139427148Y-96005357D01*
X139427148Y-96005357D02*
X139462862Y-95933928D01*
X139462862Y-95933928D02*
X139534290Y-95898214D01*
X139534290Y-95898214D02*
X139677148Y-95898214D01*
X139677148Y-95898214D02*
X139748576Y-95933928D01*
X139427148Y-96362500D02*
X139498576Y-96398214D01*
X139498576Y-96398214D02*
X139677148Y-96398214D01*
X139677148Y-96398214D02*
X139748576Y-96362500D01*
X139748576Y-96362500D02*
X139784290Y-96291071D01*
X139784290Y-96291071D02*
X139784290Y-96219642D01*
X139784290Y-96219642D02*
X139748576Y-96148214D01*
X139748576Y-96148214D02*
X139677148Y-96112500D01*
X139677148Y-96112500D02*
X139498576Y-96112500D01*
X139498576Y-96112500D02*
X139427148Y-96076785D01*
X138748577Y-96398214D02*
X138748577Y-95648214D01*
X138748577Y-96362500D02*
X138820005Y-96398214D01*
X138820005Y-96398214D02*
X138962862Y-96398214D01*
X138962862Y-96398214D02*
X139034291Y-96362500D01*
X139034291Y-96362500D02*
X139070005Y-96326785D01*
X139070005Y-96326785D02*
X139105719Y-96255357D01*
X139105719Y-96255357D02*
X139105719Y-96041071D01*
X139105719Y-96041071D02*
X139070005Y-95969642D01*
X139070005Y-95969642D02*
X139034291Y-95933928D01*
X139034291Y-95933928D02*
X138962862Y-95898214D01*
X138962862Y-95898214D02*
X138820005Y-95898214D01*
X138820005Y-95898214D02*
X138748577Y-95933928D01*
X138570006Y-96469642D02*
X137998577Y-96469642D01*
X137820005Y-95898214D02*
X137820005Y-96648214D01*
X137820005Y-95933928D02*
X137748577Y-95898214D01*
X137748577Y-95898214D02*
X137605719Y-95898214D01*
X137605719Y-95898214D02*
X137534291Y-95933928D01*
X137534291Y-95933928D02*
X137498577Y-95969642D01*
X137498577Y-95969642D02*
X137462862Y-96041071D01*
X137462862Y-96041071D02*
X137462862Y-96255357D01*
X137462862Y-96255357D02*
X137498577Y-96326785D01*
X137498577Y-96326785D02*
X137534291Y-96362500D01*
X137534291Y-96362500D02*
X137605719Y-96398214D01*
X137605719Y-96398214D02*
X137748577Y-96398214D01*
X137748577Y-96398214D02*
X137820005Y-96362500D01*
X136820006Y-95898214D02*
X136820006Y-96398214D01*
X137141434Y-95898214D02*
X137141434Y-96291071D01*
X137141434Y-96291071D02*
X137105720Y-96362500D01*
X137105720Y-96362500D02*
X137034291Y-96398214D01*
X137034291Y-96398214D02*
X136927148Y-96398214D01*
X136927148Y-96398214D02*
X136855720Y-96362500D01*
X136855720Y-96362500D02*
X136820006Y-96326785D01*
X136462863Y-96398214D02*
X136462863Y-95898214D01*
X136462863Y-95969642D02*
X136427149Y-95933928D01*
X136427149Y-95933928D02*
X136355720Y-95898214D01*
X136355720Y-95898214D02*
X136248577Y-95898214D01*
X136248577Y-95898214D02*
X136177149Y-95933928D01*
X136177149Y-95933928D02*
X136141435Y-96005357D01*
X136141435Y-96005357D02*
X136141435Y-96398214D01*
X136141435Y-96005357D02*
X136105720Y-95933928D01*
X136105720Y-95933928D02*
X136034292Y-95898214D01*
X136034292Y-95898214D02*
X135927149Y-95898214D01*
X135927149Y-95898214D02*
X135855720Y-95933928D01*
X135855720Y-95933928D02*
X135820006Y-96005357D01*
X135820006Y-96005357D02*
X135820006Y-96398214D01*
X135462863Y-95898214D02*
X135462863Y-96648214D01*
X135462863Y-95933928D02*
X135391435Y-95898214D01*
X135391435Y-95898214D02*
X135248577Y-95898214D01*
X135248577Y-95898214D02*
X135177149Y-95933928D01*
X135177149Y-95933928D02*
X135141435Y-95969642D01*
X135141435Y-95969642D02*
X135105720Y-96041071D01*
X135105720Y-96041071D02*
X135105720Y-96255357D01*
X135105720Y-96255357D02*
X135141435Y-96326785D01*
X135141435Y-96326785D02*
X135177149Y-96362500D01*
X135177149Y-96362500D02*
X135248577Y-96398214D01*
X135248577Y-96398214D02*
X135391435Y-96398214D01*
X135391435Y-96398214D02*
X135462863Y-96362500D01*
X134784292Y-96398214D02*
X134784292Y-95648214D01*
X134712864Y-96112500D02*
X134498578Y-96398214D01*
X134498578Y-95898214D02*
X134784292Y-96183928D01*
X134177149Y-96398214D02*
X134177149Y-95898214D01*
X134177149Y-95648214D02*
X134212863Y-95683928D01*
X134212863Y-95683928D02*
X134177149Y-95719642D01*
X134177149Y-95719642D02*
X134141435Y-95683928D01*
X134141435Y-95683928D02*
X134177149Y-95648214D01*
X134177149Y-95648214D02*
X134177149Y-95719642D01*
X133820006Y-95898214D02*
X133820006Y-96398214D01*
X133820006Y-95969642D02*
X133784292Y-95933928D01*
X133784292Y-95933928D02*
X133712863Y-95898214D01*
X133712863Y-95898214D02*
X133605720Y-95898214D01*
X133605720Y-95898214D02*
X133534292Y-95933928D01*
X133534292Y-95933928D02*
X133498578Y-96005357D01*
X133498578Y-96005357D02*
X133498578Y-96398214D01*
D12*
X156329523Y-93887619D02*
X156329523Y-94078095D01*
X155948571Y-93887619D02*
X155948571Y-94078095D01*
X155519999Y-94887619D02*
X155519999Y-93887619D01*
X155519999Y-93887619D02*
X155139047Y-93887619D01*
X155139047Y-93887619D02*
X155043809Y-93935238D01*
X155043809Y-93935238D02*
X154996190Y-93982857D01*
X154996190Y-93982857D02*
X154948571Y-94078095D01*
X154948571Y-94078095D02*
X154948571Y-94220952D01*
X154948571Y-94220952D02*
X154996190Y-94316190D01*
X154996190Y-94316190D02*
X155043809Y-94363809D01*
X155043809Y-94363809D02*
X155139047Y-94411428D01*
X155139047Y-94411428D02*
X155519999Y-94411428D01*
X154091428Y-94220952D02*
X154091428Y-94887619D01*
X154519999Y-94220952D02*
X154519999Y-94744761D01*
X154519999Y-94744761D02*
X154472380Y-94840000D01*
X154472380Y-94840000D02*
X154377142Y-94887619D01*
X154377142Y-94887619D02*
X154234285Y-94887619D01*
X154234285Y-94887619D02*
X154139047Y-94840000D01*
X154139047Y-94840000D02*
X154091428Y-94792380D01*
X153615237Y-94887619D02*
X153615237Y-94220952D01*
X153615237Y-94316190D02*
X153567618Y-94268571D01*
X153567618Y-94268571D02*
X153472380Y-94220952D01*
X153472380Y-94220952D02*
X153329523Y-94220952D01*
X153329523Y-94220952D02*
X153234285Y-94268571D01*
X153234285Y-94268571D02*
X153186666Y-94363809D01*
X153186666Y-94363809D02*
X153186666Y-94887619D01*
X153186666Y-94363809D02*
X153139047Y-94268571D01*
X153139047Y-94268571D02*
X153043809Y-94220952D01*
X153043809Y-94220952D02*
X152900952Y-94220952D01*
X152900952Y-94220952D02*
X152805713Y-94268571D01*
X152805713Y-94268571D02*
X152758094Y-94363809D01*
X152758094Y-94363809D02*
X152758094Y-94887619D01*
X152281904Y-94220952D02*
X152281904Y-95220952D01*
X152281904Y-94268571D02*
X152186666Y-94220952D01*
X152186666Y-94220952D02*
X151996190Y-94220952D01*
X151996190Y-94220952D02*
X151900952Y-94268571D01*
X151900952Y-94268571D02*
X151853333Y-94316190D01*
X151853333Y-94316190D02*
X151805714Y-94411428D01*
X151805714Y-94411428D02*
X151805714Y-94697142D01*
X151805714Y-94697142D02*
X151853333Y-94792380D01*
X151853333Y-94792380D02*
X151900952Y-94840000D01*
X151900952Y-94840000D02*
X151996190Y-94887619D01*
X151996190Y-94887619D02*
X152186666Y-94887619D01*
X152186666Y-94887619D02*
X152281904Y-94840000D01*
X151377142Y-94887619D02*
X151377142Y-93887619D01*
X151281904Y-94506666D02*
X150996190Y-94887619D01*
X150996190Y-94220952D02*
X151377142Y-94601904D01*
X150567618Y-94887619D02*
X150567618Y-94220952D01*
X150567618Y-93887619D02*
X150615237Y-93935238D01*
X150615237Y-93935238D02*
X150567618Y-93982857D01*
X150567618Y-93982857D02*
X150519999Y-93935238D01*
X150519999Y-93935238D02*
X150567618Y-93887619D01*
X150567618Y-93887619D02*
X150567618Y-93982857D01*
X150091428Y-94220952D02*
X150091428Y-94887619D01*
X150091428Y-94316190D02*
X150043809Y-94268571D01*
X150043809Y-94268571D02*
X149948571Y-94220952D01*
X149948571Y-94220952D02*
X149805714Y-94220952D01*
X149805714Y-94220952D02*
X149710476Y-94268571D01*
X149710476Y-94268571D02*
X149662857Y-94363809D01*
X149662857Y-94363809D02*
X149662857Y-94887619D01*
X149234285Y-93887619D02*
X149234285Y-94078095D01*
X148853333Y-93887619D02*
X148853333Y-94078095D01*
X147662856Y-94887619D02*
X147662856Y-93887619D01*
X147662856Y-94268571D02*
X147567618Y-94220952D01*
X147567618Y-94220952D02*
X147377142Y-94220952D01*
X147377142Y-94220952D02*
X147281904Y-94268571D01*
X147281904Y-94268571D02*
X147234285Y-94316190D01*
X147234285Y-94316190D02*
X147186666Y-94411428D01*
X147186666Y-94411428D02*
X147186666Y-94697142D01*
X147186666Y-94697142D02*
X147234285Y-94792380D01*
X147234285Y-94792380D02*
X147281904Y-94840000D01*
X147281904Y-94840000D02*
X147377142Y-94887619D01*
X147377142Y-94887619D02*
X147567618Y-94887619D01*
X147567618Y-94887619D02*
X147662856Y-94840000D01*
X146853332Y-94220952D02*
X146615237Y-94887619D01*
X146377142Y-94220952D02*
X146615237Y-94887619D01*
X146615237Y-94887619D02*
X146710475Y-95125714D01*
X146710475Y-95125714D02*
X146758094Y-95173333D01*
X146758094Y-95173333D02*
X146853332Y-95220952D01*
X144662856Y-94887619D02*
X144996189Y-94411428D01*
X145234284Y-94887619D02*
X145234284Y-93887619D01*
X145234284Y-93887619D02*
X144853332Y-93887619D01*
X144853332Y-93887619D02*
X144758094Y-93935238D01*
X144758094Y-93935238D02*
X144710475Y-93982857D01*
X144710475Y-93982857D02*
X144662856Y-94078095D01*
X144662856Y-94078095D02*
X144662856Y-94220952D01*
X144662856Y-94220952D02*
X144710475Y-94316190D01*
X144710475Y-94316190D02*
X144758094Y-94363809D01*
X144758094Y-94363809D02*
X144853332Y-94411428D01*
X144853332Y-94411428D02*
X145234284Y-94411428D01*
X144091427Y-94887619D02*
X144186665Y-94840000D01*
X144186665Y-94840000D02*
X144234284Y-94792380D01*
X144234284Y-94792380D02*
X144281903Y-94697142D01*
X144281903Y-94697142D02*
X144281903Y-94411428D01*
X144281903Y-94411428D02*
X144234284Y-94316190D01*
X144234284Y-94316190D02*
X144186665Y-94268571D01*
X144186665Y-94268571D02*
X144091427Y-94220952D01*
X144091427Y-94220952D02*
X143948570Y-94220952D01*
X143948570Y-94220952D02*
X143853332Y-94268571D01*
X143853332Y-94268571D02*
X143805713Y-94316190D01*
X143805713Y-94316190D02*
X143758094Y-94411428D01*
X143758094Y-94411428D02*
X143758094Y-94697142D01*
X143758094Y-94697142D02*
X143805713Y-94792380D01*
X143805713Y-94792380D02*
X143853332Y-94840000D01*
X143853332Y-94840000D02*
X143948570Y-94887619D01*
X143948570Y-94887619D02*
X144091427Y-94887619D01*
X143329522Y-94887619D02*
X143329522Y-93887619D01*
X143329522Y-94268571D02*
X143234284Y-94220952D01*
X143234284Y-94220952D02*
X143043808Y-94220952D01*
X143043808Y-94220952D02*
X142948570Y-94268571D01*
X142948570Y-94268571D02*
X142900951Y-94316190D01*
X142900951Y-94316190D02*
X142853332Y-94411428D01*
X142853332Y-94411428D02*
X142853332Y-94697142D01*
X142853332Y-94697142D02*
X142900951Y-94792380D01*
X142900951Y-94792380D02*
X142948570Y-94840000D01*
X142948570Y-94840000D02*
X143043808Y-94887619D01*
X143043808Y-94887619D02*
X143234284Y-94887619D01*
X143234284Y-94887619D02*
X143329522Y-94840000D01*
X142043808Y-94840000D02*
X142139046Y-94887619D01*
X142139046Y-94887619D02*
X142329522Y-94887619D01*
X142329522Y-94887619D02*
X142424760Y-94840000D01*
X142424760Y-94840000D02*
X142472379Y-94744761D01*
X142472379Y-94744761D02*
X142472379Y-94363809D01*
X142472379Y-94363809D02*
X142424760Y-94268571D01*
X142424760Y-94268571D02*
X142329522Y-94220952D01*
X142329522Y-94220952D02*
X142139046Y-94220952D01*
X142139046Y-94220952D02*
X142043808Y-94268571D01*
X142043808Y-94268571D02*
X141996189Y-94363809D01*
X141996189Y-94363809D02*
X141996189Y-94459047D01*
X141996189Y-94459047D02*
X142472379Y-94554285D01*
X141567617Y-94887619D02*
X141567617Y-94220952D01*
X141567617Y-94411428D02*
X141519998Y-94316190D01*
X141519998Y-94316190D02*
X141472379Y-94268571D01*
X141472379Y-94268571D02*
X141377141Y-94220952D01*
X141377141Y-94220952D02*
X141281903Y-94220952D01*
X141091426Y-94220952D02*
X140710474Y-94220952D01*
X140948569Y-93887619D02*
X140948569Y-94744761D01*
X140948569Y-94744761D02*
X140900950Y-94840000D01*
X140900950Y-94840000D02*
X140805712Y-94887619D01*
X140805712Y-94887619D02*
X140710474Y-94887619D01*
X139615235Y-94887619D02*
X139615235Y-93887619D01*
X139615235Y-93887619D02*
X139234283Y-93887619D01*
X139234283Y-93887619D02*
X139139045Y-93935238D01*
X139139045Y-93935238D02*
X139091426Y-93982857D01*
X139091426Y-93982857D02*
X139043807Y-94078095D01*
X139043807Y-94078095D02*
X139043807Y-94220952D01*
X139043807Y-94220952D02*
X139091426Y-94316190D01*
X139091426Y-94316190D02*
X139139045Y-94363809D01*
X139139045Y-94363809D02*
X139234283Y-94411428D01*
X139234283Y-94411428D02*
X139615235Y-94411428D01*
X138472378Y-94887619D02*
X138567616Y-94840000D01*
X138567616Y-94840000D02*
X138615235Y-94792380D01*
X138615235Y-94792380D02*
X138662854Y-94697142D01*
X138662854Y-94697142D02*
X138662854Y-94411428D01*
X138662854Y-94411428D02*
X138615235Y-94316190D01*
X138615235Y-94316190D02*
X138567616Y-94268571D01*
X138567616Y-94268571D02*
X138472378Y-94220952D01*
X138472378Y-94220952D02*
X138329521Y-94220952D01*
X138329521Y-94220952D02*
X138234283Y-94268571D01*
X138234283Y-94268571D02*
X138186664Y-94316190D01*
X138186664Y-94316190D02*
X138139045Y-94411428D01*
X138139045Y-94411428D02*
X138139045Y-94697142D01*
X138139045Y-94697142D02*
X138186664Y-94792380D01*
X138186664Y-94792380D02*
X138234283Y-94840000D01*
X138234283Y-94840000D02*
X138329521Y-94887619D01*
X138329521Y-94887619D02*
X138472378Y-94887619D01*
X137758092Y-94840000D02*
X137662854Y-94887619D01*
X137662854Y-94887619D02*
X137472378Y-94887619D01*
X137472378Y-94887619D02*
X137377140Y-94840000D01*
X137377140Y-94840000D02*
X137329521Y-94744761D01*
X137329521Y-94744761D02*
X137329521Y-94697142D01*
X137329521Y-94697142D02*
X137377140Y-94601904D01*
X137377140Y-94601904D02*
X137472378Y-94554285D01*
X137472378Y-94554285D02*
X137615235Y-94554285D01*
X137615235Y-94554285D02*
X137710473Y-94506666D01*
X137710473Y-94506666D02*
X137758092Y-94411428D01*
X137758092Y-94411428D02*
X137758092Y-94363809D01*
X137758092Y-94363809D02*
X137710473Y-94268571D01*
X137710473Y-94268571D02*
X137615235Y-94220952D01*
X137615235Y-94220952D02*
X137472378Y-94220952D01*
X137472378Y-94220952D02*
X137377140Y-94268571D01*
X137043806Y-94220952D02*
X136662854Y-94220952D01*
X136900949Y-93887619D02*
X136900949Y-94744761D01*
X136900949Y-94744761D02*
X136853330Y-94840000D01*
X136853330Y-94840000D02*
X136758092Y-94887619D01*
X136758092Y-94887619D02*
X136662854Y-94887619D01*
X136329520Y-94887619D02*
X136329520Y-94220952D01*
X136329520Y-94316190D02*
X136281901Y-94268571D01*
X136281901Y-94268571D02*
X136186663Y-94220952D01*
X136186663Y-94220952D02*
X136043806Y-94220952D01*
X136043806Y-94220952D02*
X135948568Y-94268571D01*
X135948568Y-94268571D02*
X135900949Y-94363809D01*
X135900949Y-94363809D02*
X135900949Y-94887619D01*
X135900949Y-94363809D02*
X135853330Y-94268571D01*
X135853330Y-94268571D02*
X135758092Y-94220952D01*
X135758092Y-94220952D02*
X135615235Y-94220952D01*
X135615235Y-94220952D02*
X135519996Y-94268571D01*
X135519996Y-94268571D02*
X135472377Y-94363809D01*
X135472377Y-94363809D02*
X135472377Y-94887619D01*
X134567616Y-94887619D02*
X134567616Y-94363809D01*
X134567616Y-94363809D02*
X134615235Y-94268571D01*
X134615235Y-94268571D02*
X134710473Y-94220952D01*
X134710473Y-94220952D02*
X134900949Y-94220952D01*
X134900949Y-94220952D02*
X134996187Y-94268571D01*
X134567616Y-94840000D02*
X134662854Y-94887619D01*
X134662854Y-94887619D02*
X134900949Y-94887619D01*
X134900949Y-94887619D02*
X134996187Y-94840000D01*
X134996187Y-94840000D02*
X135043806Y-94744761D01*
X135043806Y-94744761D02*
X135043806Y-94649523D01*
X135043806Y-94649523D02*
X134996187Y-94554285D01*
X134996187Y-94554285D02*
X134900949Y-94506666D01*
X134900949Y-94506666D02*
X134662854Y-94506666D01*
X134662854Y-94506666D02*
X134567616Y-94459047D01*
D13*
X161050000Y-104290000D02*
X158190000Y-104290000D01*
X161050000Y-102370000D02*
X161050000Y-104290000D01*
X158190000Y-102370000D02*
X161050000Y-102370000D01*
D14*
X137949850Y-110784321D02*
X137949850Y-110784321D01*
X137853258Y-110758439D02*
X137853258Y-110758439D01*
X137853259Y-110758439D02*
G75*
G03*
X137949849Y-110784321I48295J-12941D01*
G01*
X137949849Y-110784321D02*
G75*
G03*
X137853259Y-110758439I-48295J12941D01*
G01*
D13*
X159157500Y-89980000D02*
X156297500Y-89980000D01*
X159157500Y-88060000D02*
X159157500Y-89980000D01*
X156297500Y-88060000D02*
X159157500Y-88060000D01*
X157367064Y-101595000D02*
X156912936Y-101595000D01*
X157367064Y-100125000D02*
X156912936Y-100125000D01*
X146765000Y-109350000D02*
X143905000Y-109350000D01*
X146765000Y-107430000D02*
X146765000Y-109350000D01*
X143905000Y-107430000D02*
X146765000Y-107430000D01*
X130057500Y-101300000D02*
X127197500Y-101300000D01*
X130057500Y-99380000D02*
X130057500Y-101300000D01*
X127197500Y-99380000D02*
X130057500Y-99380000D01*
X132450000Y-104100000D02*
X129590000Y-104100000D01*
X132450000Y-102180000D02*
X132450000Y-104100000D01*
X129590000Y-102180000D02*
X132450000Y-102180000D01*
X163565000Y-101140000D02*
X160705000Y-101140000D01*
X163565000Y-99220000D02*
X163565000Y-101140000D01*
X160705000Y-99220000D02*
X163565000Y-99220000D01*
X124297064Y-101085000D02*
X123842936Y-101085000D01*
X124297064Y-99615000D02*
X123842936Y-99615000D01*
X130937064Y-93295000D02*
X130482936Y-93295000D01*
X130937064Y-91825000D02*
X130482936Y-91825000D01*
X165327064Y-103045000D02*
X164872936Y-103045000D01*
X165327064Y-101575000D02*
X164872936Y-101575000D01*
X130757064Y-106495000D02*
X130302936Y-106495000D01*
X130757064Y-105025000D02*
X130302936Y-105025000D01*
X151227064Y-101965000D02*
X150772936Y-101965000D01*
X151227064Y-100495000D02*
X150772936Y-100495000D01*
X158312936Y-91645000D02*
X158767064Y-91645000D01*
X158312936Y-93115000D02*
X158767064Y-93115000D01*
X136727500Y-93510000D02*
X133867500Y-93510000D01*
X136727500Y-91590000D02*
X136727500Y-93510000D01*
X133867500Y-91590000D02*
X136727500Y-91590000D01*
X157607064Y-87285000D02*
X157152936Y-87285000D01*
X157607064Y-85815000D02*
X157152936Y-85815000D01*
X145247064Y-105895000D02*
X144792936Y-105895000D01*
X145247064Y-104425000D02*
X144792936Y-104425000D01*
X133785000Y-90370000D02*
X130925000Y-90370000D01*
X133785000Y-88450000D02*
X133785000Y-90370000D01*
X130925000Y-88450000D02*
X133785000Y-88450000D01*
X156300000Y-93450000D02*
X153440000Y-93450000D01*
X156300000Y-91530000D02*
X156300000Y-93450000D01*
X153440000Y-91530000D02*
X156300000Y-91530000D01*
X132197064Y-87785000D02*
X131742936Y-87785000D01*
X132197064Y-86315000D02*
X131742936Y-86315000D01*
X152837500Y-104730000D02*
X149977500Y-104730000D01*
X152837500Y-102810000D02*
X152837500Y-104730000D01*
X149977500Y-102810000D02*
X152837500Y-102810000D01*
X141140000Y-104770000D02*
X138280000Y-104770000D01*
X141140000Y-102850000D02*
X141140000Y-104770000D01*
X138280000Y-102850000D02*
X141140000Y-102850000D01*
X139577064Y-101565000D02*
X139122936Y-101565000D01*
X139577064Y-100095000D02*
X139122936Y-100095000D01*
%LPC*%
D14*
X145160000Y-109390000D02*
X144650000Y-109390000D01*
X144650000Y-107470000D01*
X145160000Y-107470000D01*
X145160000Y-109390000D01*
G36*
X145160000Y-109390000D02*
G01*
X144650000Y-109390000D01*
X144650000Y-107470000D01*
X145160000Y-107470000D01*
X145160000Y-109390000D01*
G37*
X132180000Y-90370000D02*
X131670000Y-90370000D01*
X131670000Y-88450000D01*
X132180000Y-88450000D01*
X132180000Y-90370000D01*
G36*
X132180000Y-90370000D02*
G01*
X131670000Y-90370000D01*
X131670000Y-88450000D01*
X132180000Y-88450000D01*
X132180000Y-90370000D01*
G37*
X135130000Y-93490000D02*
X134620000Y-93490000D01*
X134620000Y-91570000D01*
X135130000Y-91570000D01*
X135130000Y-93490000D01*
G36*
X135130000Y-93490000D02*
G01*
X134620000Y-93490000D01*
X134620000Y-91570000D01*
X135130000Y-91570000D01*
X135130000Y-93490000D01*
G37*
X161960000Y-101140000D02*
X161450000Y-101140000D01*
X161450000Y-99220000D01*
X161960000Y-99220000D01*
X161960000Y-101140000D01*
G36*
X161960000Y-101140000D02*
G01*
X161450000Y-101140000D01*
X161450000Y-99220000D01*
X161960000Y-99220000D01*
X161960000Y-101140000D01*
G37*
X151230000Y-104720000D02*
X150720000Y-104720000D01*
X150720000Y-102800000D01*
X151230000Y-102800000D01*
X151230000Y-104720000D01*
G36*
X151230000Y-104720000D02*
G01*
X150720000Y-104720000D01*
X150720000Y-102800000D01*
X151230000Y-102800000D01*
X151230000Y-104720000D01*
G37*
X154690000Y-93460000D02*
X154180000Y-93460000D01*
X154180000Y-91540000D01*
X154690000Y-91540000D01*
X154690000Y-93460000D01*
G36*
X154690000Y-93460000D02*
G01*
X154180000Y-93460000D01*
X154180000Y-91540000D01*
X154690000Y-91540000D01*
X154690000Y-93460000D01*
G37*
X157550000Y-89990000D02*
X157040000Y-89990000D01*
X157040000Y-88070000D01*
X157550000Y-88070000D01*
X157550000Y-89990000D01*
G36*
X157550000Y-89990000D02*
G01*
X157040000Y-89990000D01*
X157040000Y-88070000D01*
X157550000Y-88070000D01*
X157550000Y-89990000D01*
G37*
X139530000Y-104770000D02*
X139020000Y-104770000D01*
X139020000Y-102850000D01*
X139530000Y-102850000D01*
X139530000Y-104770000D01*
G36*
X139530000Y-104770000D02*
G01*
X139020000Y-104770000D01*
X139020000Y-102850000D01*
X139530000Y-102850000D01*
X139530000Y-104770000D01*
G37*
X128450000Y-101320000D02*
X127940000Y-101320000D01*
X127940000Y-99400000D01*
X128450000Y-99400000D01*
X128450000Y-101320000D01*
G36*
X128450000Y-101320000D02*
G01*
X127940000Y-101320000D01*
X127940000Y-99400000D01*
X128450000Y-99400000D01*
X128450000Y-101320000D01*
G37*
X130840000Y-104120000D02*
X130330000Y-104120000D01*
X130330000Y-102200000D01*
X130840000Y-102200000D01*
X130840000Y-104120000D01*
G36*
X130840000Y-104120000D02*
G01*
X130330000Y-104120000D01*
X130330000Y-102200000D01*
X130840000Y-102200000D01*
X130840000Y-104120000D01*
G37*
X159440000Y-104270000D02*
X158930000Y-104270000D01*
X158930000Y-102350000D01*
X159440000Y-102350000D01*
X159440000Y-104270000D01*
G36*
X159440000Y-104270000D02*
G01*
X158930000Y-104270000D01*
X158930000Y-102350000D01*
X159440000Y-102350000D01*
X159440000Y-104270000D01*
G37*
D15*
X160215000Y-103330000D03*
X158165000Y-103330000D03*
D16*
X136348889Y-113668229D03*
X133451111Y-112891771D03*
D17*
X137610383Y-111858047D03*
X134712605Y-111081590D03*
X133263716Y-110693361D03*
D18*
X138855219Y-113200994D03*
X138285817Y-115326031D03*
X130944781Y-113359006D03*
X131514183Y-111233969D03*
D15*
X158322500Y-89020000D03*
X156272500Y-89020000D03*
D19*
X158140000Y-100860000D03*
X156140000Y-100860000D03*
D15*
X145930000Y-108390000D03*
X143880000Y-108390000D03*
X129222500Y-100340000D03*
X127172500Y-100340000D03*
X131615000Y-103140000D03*
X129565000Y-103140000D03*
X162730000Y-100180000D03*
X160680000Y-100180000D03*
D19*
X125070000Y-100350000D03*
X123070000Y-100350000D03*
X131710000Y-92560000D03*
X129710000Y-92560000D03*
X166100000Y-102310000D03*
X164100000Y-102310000D03*
D20*
X162170000Y-107530000D03*
X147886672Y-112728706D03*
D21*
X155028336Y-110129353D03*
D19*
X131530000Y-105760000D03*
X129530000Y-105760000D03*
X152000000Y-101230000D03*
X150000000Y-101230000D03*
D22*
X157540000Y-92380000D03*
X159540000Y-92380000D03*
D15*
X135892500Y-92550000D03*
X133842500Y-92550000D03*
D19*
X158380000Y-86550000D03*
X156380000Y-86550000D03*
X146020000Y-105160000D03*
X144020000Y-105160000D03*
D15*
X132950000Y-89410000D03*
X130900000Y-89410000D03*
X155465000Y-92490000D03*
X153415000Y-92490000D03*
D19*
X132970000Y-87050000D03*
X130970000Y-87050000D03*
D15*
X152002500Y-103770000D03*
X149952500Y-103770000D03*
X140305000Y-103810000D03*
X138255000Y-103810000D03*
D19*
X140350000Y-100830000D03*
X138350000Y-100830000D03*
M02*
