G04 #@! TF.GenerationSoftware,KiCad,Pcbnew,7.0.1-0*
G04 #@! TF.CreationDate,2023-08-23T15:24:57+02:00*
G04 #@! TF.ProjectId,pumpkin,70756d70-6b69-46e2-9e6b-696361645f70,rev?*
G04 #@! TF.SameCoordinates,Original*
G04 #@! TF.FileFunction,Profile,NP*
%FSLAX46Y46*%
G04 Gerber Fmt 4.6, Leading zero omitted, Abs format (unit mm)*
G04 Created by KiCad (PCBNEW 7.0.1-0) date 2023-08-23 15:24:57*
%MOMM*%
%LPD*%
G01*
G04 APERTURE LIST*
%ADD10C,0.054000*%
G04 #@! TA.AperFunction,Profile*
%ADD11C,0.054000*%
G04 #@! TD*
G04 APERTURE END LIST*
D10*
X169541801Y-104757343D02*
X169317586Y-105394541D01*
X169074735Y-106015564D01*
X168813191Y-106620454D01*
X168532897Y-107209252D01*
X168233799Y-107782002D01*
X167915838Y-108338745D01*
X167578961Y-108879524D01*
X167223109Y-109404381D01*
X166848228Y-109913358D01*
X166454261Y-110406497D01*
X166041152Y-110883842D01*
X165608845Y-111345433D01*
X165157284Y-111791314D01*
X164686412Y-112221526D01*
X164196173Y-112636113D01*
X163686512Y-113035115D01*
X163157372Y-113418576D01*
X162608698Y-113786538D01*
X162040432Y-114139043D01*
X161452519Y-114476133D01*
X160844903Y-114797850D01*
X160217527Y-115104238D01*
X159570336Y-115395337D01*
X158903273Y-115671191D01*
X158216283Y-115931842D01*
X157509308Y-116177331D01*
X156782294Y-116407702D01*
X156035183Y-116622996D01*
X155267921Y-116823256D01*
X154480450Y-117008524D01*
X153672714Y-117178843D01*
X152844658Y-117334254D01*
X121819553Y-86452981D02*
X122083883Y-85993710D01*
X122364540Y-85549460D01*
X122661322Y-85120319D01*
X122974027Y-84706374D01*
X123302455Y-84307713D01*
X123646405Y-83924425D01*
X124005674Y-83556597D01*
X124380062Y-83204318D01*
X124769368Y-82867676D01*
X125173390Y-82546759D01*
X125591927Y-82241655D01*
X126024778Y-81952452D01*
X126471742Y-81679238D01*
X126932617Y-81422101D01*
X127407203Y-81181129D01*
X127895297Y-80956411D01*
X128396700Y-80748033D01*
X128911209Y-80556086D01*
X129438623Y-80380656D01*
X129978742Y-80221831D01*
X130531363Y-80079700D01*
X131096286Y-79954351D01*
X131673310Y-79845872D01*
X132262233Y-79754351D01*
X132862854Y-79679875D01*
X133474971Y-79622534D01*
X134098384Y-79582414D01*
X134732892Y-79559605D01*
X135378293Y-79554195D01*
X136034385Y-79566270D01*
X136700969Y-79595920D01*
X137377842Y-79643233D01*
X147069878Y-73405482D02*
X147126799Y-73536168D01*
X147181703Y-73666273D01*
X147234606Y-73795870D01*
X147285523Y-73925029D01*
X147334468Y-74053820D01*
X147381457Y-74182317D01*
X147426504Y-74310589D01*
X147469624Y-74438707D01*
X147510833Y-74566744D01*
X147550146Y-74694770D01*
X147587577Y-74822856D01*
X147623142Y-74951074D01*
X147656855Y-75079495D01*
X147688732Y-75208189D01*
X147718788Y-75337229D01*
X147747037Y-75466685D01*
X147773495Y-75596629D01*
X147798177Y-75727131D01*
X147821097Y-75858263D01*
X147842271Y-75990096D01*
X147861714Y-76122702D01*
X147879440Y-76256151D01*
X147895466Y-76390514D01*
X147909805Y-76525864D01*
X147922472Y-76662270D01*
X147933484Y-76799805D01*
X147942854Y-76938539D01*
X147950598Y-77078544D01*
X147956731Y-77219890D01*
X147961268Y-77362650D01*
X147964224Y-77506893D01*
X147965614Y-77652693D01*
X159156329Y-79951405D02*
X159652155Y-80062732D01*
X160136761Y-80185489D01*
X160610179Y-80319704D01*
X161072444Y-80465409D01*
X161523589Y-80622635D01*
X161963650Y-80791411D01*
X162392660Y-80971769D01*
X162810653Y-81163739D01*
X163217663Y-81367351D01*
X163613724Y-81582636D01*
X163998871Y-81809624D01*
X164373137Y-82048347D01*
X164736556Y-82298834D01*
X165089163Y-82561116D01*
X165430992Y-82835224D01*
X165762076Y-83121188D01*
X166082450Y-83419038D01*
X166392148Y-83728806D01*
X166691204Y-84050522D01*
X166979652Y-84384216D01*
X167257526Y-84729919D01*
X167524860Y-85087661D01*
X167781688Y-85457473D01*
X168028045Y-85839386D01*
X168263964Y-86233429D01*
X168489479Y-86639635D01*
X168704625Y-87058032D01*
X168909436Y-87488652D01*
X169103945Y-87931524D01*
X169288187Y-88386681D01*
X169462196Y-88854152D01*
X169626006Y-89333968D01*
X152844658Y-117334254D02*
X152735425Y-117352935D01*
X152623686Y-117370816D01*
X152508967Y-117387917D01*
X152390796Y-117404256D01*
X152268699Y-117419855D01*
X152142202Y-117434733D01*
X152010833Y-117448910D01*
X151874118Y-117462407D01*
X151731585Y-117475244D01*
X151582760Y-117487439D01*
X151427169Y-117499015D01*
X151264340Y-117509989D01*
X151093800Y-117520384D01*
X150915075Y-117530217D01*
X150727692Y-117539511D01*
X150531178Y-117548284D01*
X150325060Y-117556557D01*
X150108864Y-117564349D01*
X149882117Y-117571682D01*
X149644347Y-117578574D01*
X149395079Y-117585046D01*
X149133841Y-117591117D01*
X148860160Y-117596809D01*
X148573562Y-117602141D01*
X148273575Y-117607132D01*
X147959724Y-117611804D01*
X147631537Y-117616175D01*
X147288541Y-117620266D01*
X146930262Y-117624098D01*
X146556227Y-117627690D01*
X146165963Y-117631062D01*
X145758998Y-117634234D01*
X169626006Y-89333968D02*
X169697405Y-89555591D01*
X169765581Y-89773546D01*
X169830598Y-89988310D01*
X169892517Y-90200364D01*
X169951401Y-90410186D01*
X170007312Y-90618257D01*
X170060314Y-90825057D01*
X170110467Y-91031063D01*
X170157835Y-91236757D01*
X170202480Y-91442617D01*
X170244465Y-91649124D01*
X170283851Y-91856756D01*
X170320702Y-92065993D01*
X170355080Y-92277314D01*
X170387047Y-92491200D01*
X170416666Y-92708129D01*
X170443999Y-92928582D01*
X170469109Y-93153037D01*
X170492057Y-93381974D01*
X170512907Y-93615873D01*
X170531721Y-93855214D01*
X170548562Y-94100475D01*
X170563491Y-94352136D01*
X170576571Y-94610677D01*
X170587865Y-94876577D01*
X170597435Y-95150316D01*
X170605343Y-95432374D01*
X170611653Y-95723229D01*
X170616425Y-96023362D01*
X170619724Y-96333251D01*
X170621611Y-96653377D01*
X170622149Y-96984219D01*
X147673077Y-80388296D02*
X147728871Y-80398446D01*
X147788921Y-80395302D01*
X147845360Y-80388984D01*
X147910320Y-80379462D01*
X147982677Y-80366907D01*
X148061304Y-80351488D01*
X148116650Y-80339702D01*
X148173950Y-80326770D01*
X148232869Y-80312742D01*
X148293075Y-80297668D01*
X148323556Y-80289756D01*
D11*
X145498446Y-72654266D02*
X146701234Y-72571909D01*
X146701234Y-72571909D02*
X147069878Y-73405482D01*
D10*
X137377842Y-79643233D02*
X137549875Y-79658359D01*
X137732780Y-79676246D01*
X137925763Y-79696760D01*
X138128030Y-79719764D01*
X138338785Y-79745123D01*
X138557234Y-79772703D01*
X138782582Y-79802368D01*
X139014035Y-79833983D01*
X139250798Y-79867414D01*
X139492076Y-79902523D01*
X139737074Y-79939178D01*
X139984999Y-79977242D01*
X140235054Y-80016580D01*
X140486447Y-80057057D01*
X140738381Y-80098539D01*
X140990063Y-80140889D01*
X141240697Y-80183973D01*
X141489490Y-80227655D01*
X141735645Y-80271801D01*
X141978370Y-80316275D01*
X142216868Y-80360942D01*
X142450346Y-80405667D01*
X142678008Y-80450314D01*
X142899061Y-80494749D01*
X143112709Y-80538837D01*
X143318157Y-80582442D01*
X143514612Y-80625429D01*
X143701278Y-80667663D01*
X143877361Y-80709009D01*
X144042066Y-80749331D01*
X144194599Y-80788495D01*
X144334165Y-80826366D01*
X144334165Y-80826366D02*
X144394679Y-80842765D01*
X144447696Y-80854467D01*
X144514228Y-80858532D01*
X144566631Y-80839990D01*
X144606546Y-80791617D01*
X144627030Y-80739228D01*
X144643182Y-80668231D01*
X144655489Y-80576484D01*
X144660352Y-80522161D01*
X144664436Y-80461847D01*
X144667803Y-80395277D01*
X144670512Y-80322181D01*
X144672626Y-80242292D01*
X144674203Y-80155344D01*
X144675307Y-80061067D01*
X144675997Y-79959196D01*
X144676334Y-79849462D01*
X144676379Y-79731597D01*
X144676193Y-79605334D01*
X144675837Y-79470406D01*
X144675372Y-79326546D01*
X147965614Y-77652693D02*
X147965695Y-77728496D01*
X147965315Y-77804911D01*
X147964484Y-77881806D01*
X147963212Y-77959046D01*
X147961512Y-78036500D01*
X147959394Y-78114034D01*
X147956869Y-78191517D01*
X147953948Y-78268815D01*
X147950642Y-78345796D01*
X147946963Y-78422326D01*
X147942920Y-78498274D01*
X147938526Y-78573506D01*
X147933791Y-78647890D01*
X147928727Y-78721294D01*
X147923343Y-78793583D01*
X147917652Y-78864626D01*
X147911665Y-78934290D01*
X147905391Y-79002442D01*
X147898843Y-79068950D01*
X147892032Y-79133681D01*
X147884968Y-79196501D01*
X147877662Y-79257279D01*
X147870126Y-79315882D01*
X147862371Y-79372177D01*
X147854407Y-79426030D01*
X147837897Y-79525885D01*
X147820686Y-79614384D01*
X147802862Y-79690465D01*
X147793748Y-79723518D01*
X144675372Y-79326546D02*
X144673062Y-79066878D01*
X144667896Y-78812351D01*
X144659869Y-78562943D01*
X144648975Y-78318631D01*
X144635207Y-78079395D01*
X144618561Y-77845212D01*
X144599031Y-77616061D01*
X144576612Y-77391920D01*
X144551297Y-77172767D01*
X144523081Y-76958581D01*
X144491958Y-76749340D01*
X144457923Y-76545023D01*
X144420970Y-76345607D01*
X144381094Y-76151071D01*
X144338289Y-75961393D01*
X144292549Y-75776552D01*
X144243869Y-75596526D01*
X144192243Y-75421293D01*
X144137665Y-75250831D01*
X144080131Y-75085120D01*
X144019633Y-74924136D01*
X143956167Y-74767859D01*
X143889727Y-74616266D01*
X143820308Y-74469337D01*
X143747903Y-74327049D01*
X143672507Y-74189380D01*
X143594115Y-74056310D01*
X143512721Y-73927816D01*
X143428319Y-73803876D01*
X143340904Y-73684470D01*
X143250469Y-73569574D01*
X143157011Y-73459169D01*
X138904395Y-117529731D02*
X137983520Y-117409170D01*
X137084159Y-117268521D01*
X136206378Y-117107833D01*
X135350242Y-116927152D01*
X134515817Y-116726528D01*
X133703169Y-116506010D01*
X132912364Y-116265645D01*
X132143468Y-116005482D01*
X131396546Y-115725569D01*
X130671665Y-115425955D01*
X129968889Y-115106689D01*
X129288286Y-114767817D01*
X128629920Y-114409390D01*
X127993859Y-114031456D01*
X127380166Y-113634062D01*
X126788909Y-113217257D01*
X126220153Y-112781090D01*
X125673964Y-112325609D01*
X125150408Y-111850863D01*
X124649550Y-111356899D01*
X124171457Y-110843767D01*
X123716194Y-110311514D01*
X123283827Y-109760189D01*
X122874422Y-109189841D01*
X122488045Y-108600518D01*
X122124761Y-107992268D01*
X121784637Y-107365139D01*
X121467738Y-106719181D01*
X121174130Y-106054442D01*
X120903879Y-105370969D01*
X120657051Y-104668811D01*
X120433712Y-103948018D01*
X148323556Y-80289756D02*
X148598224Y-80221119D01*
X148885971Y-80155948D01*
X149185901Y-80094272D01*
X149497118Y-80036118D01*
X149818726Y-79981514D01*
X150149830Y-79930488D01*
X150489533Y-79883068D01*
X150836939Y-79839282D01*
X151191153Y-79799158D01*
X151551279Y-79762725D01*
X151916420Y-79730009D01*
X152285681Y-79701040D01*
X152658165Y-79675844D01*
X153032978Y-79654450D01*
X153409222Y-79636887D01*
X153786003Y-79623181D01*
X154162424Y-79613361D01*
X154537589Y-79607455D01*
X154910602Y-79605491D01*
X155280568Y-79607497D01*
X155646590Y-79613501D01*
X156007773Y-79623530D01*
X156363220Y-79637614D01*
X156712036Y-79655779D01*
X157053325Y-79678054D01*
X157386191Y-79704467D01*
X157709737Y-79735045D01*
X158023069Y-79769818D01*
X158325290Y-79808812D01*
X158615504Y-79852056D01*
X158892816Y-79899577D01*
X159156329Y-79951405D01*
X170622149Y-96984219D02*
X170621419Y-97323305D01*
X170619427Y-97649943D01*
X170616085Y-97964759D01*
X170611306Y-98268375D01*
X170605004Y-98561417D01*
X170597092Y-98844508D01*
X170587482Y-99118273D01*
X170576089Y-99383335D01*
X170562825Y-99640320D01*
X170547604Y-99889852D01*
X170530338Y-100132555D01*
X170510941Y-100369052D01*
X170489326Y-100599969D01*
X170465407Y-100825930D01*
X170439096Y-101047558D01*
X170410307Y-101265479D01*
X170378953Y-101480315D01*
X170344946Y-101692693D01*
X170308202Y-101903236D01*
X170268631Y-102112568D01*
X170226148Y-102321313D01*
X170180667Y-102530096D01*
X170132099Y-102739541D01*
X170080358Y-102950273D01*
X170025359Y-103162915D01*
X169967012Y-103378091D01*
X169905233Y-103596427D01*
X169839933Y-103818547D01*
X169771027Y-104045073D01*
X169698428Y-104276632D01*
X169622048Y-104513847D01*
X169541801Y-104757343D01*
X147793748Y-79723518D02*
X147775916Y-79785698D01*
X147759168Y-79846718D01*
X147743564Y-79906236D01*
X147729168Y-79963913D01*
X147716041Y-80019407D01*
X147704244Y-80072377D01*
X147689179Y-80146355D01*
X147677457Y-80212737D01*
X147669285Y-80270374D01*
X147664274Y-80331630D01*
X147673077Y-80388296D01*
X143481357Y-72818884D02*
X143570547Y-72810076D01*
X143669481Y-72800678D01*
X143777124Y-72790772D01*
X143833888Y-72785656D01*
X143892441Y-72780444D01*
X143952655Y-72775148D01*
X144014399Y-72769778D01*
X144077545Y-72764344D01*
X144141964Y-72758858D01*
X144207525Y-72753329D01*
X144274100Y-72747768D01*
X144341560Y-72742186D01*
X144409775Y-72736594D01*
X144478616Y-72731001D01*
X144547953Y-72725418D01*
X144617658Y-72719857D01*
X144687602Y-72714327D01*
X144757654Y-72708839D01*
X144827686Y-72703404D01*
X144897568Y-72698032D01*
X144967171Y-72692733D01*
X145036366Y-72687519D01*
X145105024Y-72682400D01*
X145173015Y-72677386D01*
X145240210Y-72672488D01*
X145306480Y-72667716D01*
X145371695Y-72663082D01*
X145435727Y-72658594D01*
X145498446Y-72654266D01*
D11*
X143157011Y-73459169D02*
X142667058Y-72901144D01*
D10*
X145758998Y-117634234D02*
X145469193Y-117636179D01*
X145179872Y-117637721D01*
X144891476Y-117638866D01*
X144604442Y-117639622D01*
X144319211Y-117639994D01*
X144036221Y-117639991D01*
X143755912Y-117639617D01*
X143478723Y-117638881D01*
X143205094Y-117637788D01*
X142935463Y-117636346D01*
X142670271Y-117634560D01*
X142409956Y-117632439D01*
X142154957Y-117629988D01*
X141905714Y-117627214D01*
X141662667Y-117624124D01*
X141426254Y-117620725D01*
X141196914Y-117617023D01*
X140975088Y-117613025D01*
X140761214Y-117608738D01*
X140555732Y-117604169D01*
X140359081Y-117599323D01*
X140171699Y-117594208D01*
X139994028Y-117588831D01*
X139826505Y-117583198D01*
X139669570Y-117577316D01*
X139523663Y-117571192D01*
X139389222Y-117564831D01*
X139266688Y-117558242D01*
X139156498Y-117551431D01*
X139059093Y-117544404D01*
X138974912Y-117537168D01*
X138904395Y-117529731D01*
X119620000Y-96060000D02*
X119632478Y-95663904D01*
X119647877Y-95277094D01*
X119666266Y-94899259D01*
X119687718Y-94530089D01*
X119712302Y-94169274D01*
X119740089Y-93816504D01*
X119771152Y-93471470D01*
X119805560Y-93133860D01*
X119843385Y-92803366D01*
X119884697Y-92479678D01*
X119929568Y-92162485D01*
X119978068Y-91851477D01*
X120030269Y-91546345D01*
X120086241Y-91246779D01*
X120146056Y-90952468D01*
X120209784Y-90663104D01*
X120277496Y-90378375D01*
X120349264Y-90097971D01*
X120425158Y-89821584D01*
X120505249Y-89548903D01*
X120589608Y-89279618D01*
X120678306Y-89013419D01*
X120771414Y-88749997D01*
X120869004Y-88489040D01*
X120971145Y-88230240D01*
X121077910Y-87973286D01*
X121189368Y-87717869D01*
X121305591Y-87463678D01*
X121426650Y-87210404D01*
X121552616Y-86957736D01*
X121683560Y-86705365D01*
X121819553Y-86452981D01*
D11*
X142667058Y-72901144D02*
X143481357Y-72818884D01*
D10*
X120433712Y-103948018D02*
X120369653Y-103723089D01*
X120308423Y-103500029D01*
X120249988Y-103278510D01*
X120194315Y-103058206D01*
X120141369Y-102838793D01*
X120091116Y-102619943D01*
X120043525Y-102401331D01*
X119998559Y-102182631D01*
X119956187Y-101963516D01*
X119916375Y-101743662D01*
X119879088Y-101522743D01*
X119844294Y-101300431D01*
X119811958Y-101076402D01*
X119782048Y-100850329D01*
X119754528Y-100621886D01*
X119729367Y-100390748D01*
X119706529Y-100156589D01*
X119685982Y-99919082D01*
X119667692Y-99677902D01*
X119651625Y-99432723D01*
X119637748Y-99183219D01*
X119626027Y-98929063D01*
X119616428Y-98669931D01*
X119608918Y-98405496D01*
X119603463Y-98135432D01*
X119600030Y-97859413D01*
X119598585Y-97577114D01*
X119599093Y-97288208D01*
X119601523Y-96992369D01*
X119605840Y-96689272D01*
X119612010Y-96378591D01*
X119620000Y-96060000D01*
M02*
