G04 #@! TF.GenerationSoftware,KiCad,Pcbnew,7.0.1-0*
G04 #@! TF.CreationDate,2023-08-23T15:24:57+02:00*
G04 #@! TF.ProjectId,pumpkin,70756d70-6b69-46e2-9e6b-696361645f70,rev?*
G04 #@! TF.SameCoordinates,Original*
G04 #@! TF.FileFunction,Copper,L4,Bot*
G04 #@! TF.FilePolarity,Positive*
%FSLAX46Y46*%
G04 Gerber Fmt 4.6, Leading zero omitted, Abs format (unit mm)*
G04 Created by KiCad (PCBNEW 7.0.1-0) date 2023-08-23 15:24:57*
%MOMM*%
%LPD*%
G01*
G04 APERTURE LIST*
G04 Aperture macros list*
%AMRoundRect*
0 Rectangle with rounded corners*
0 $1 Rounding radius*
0 $2 $3 $4 $5 $6 $7 $8 $9 X,Y pos of 4 corners*
0 Add a 4 corners polygon primitive as box body*
4,1,4,$2,$3,$4,$5,$6,$7,$8,$9,$2,$3,0*
0 Add four circle primitives for the rounded corners*
1,1,$1+$1,$2,$3*
1,1,$1+$1,$4,$5*
1,1,$1+$1,$6,$7*
1,1,$1+$1,$8,$9*
0 Add four rect primitives between the rounded corners*
20,1,$1+$1,$2,$3,$4,$5,0*
20,1,$1+$1,$4,$5,$6,$7,0*
20,1,$1+$1,$6,$7,$8,$9,0*
20,1,$1+$1,$8,$9,$2,$3,0*%
%AMRotRect*
0 Rectangle, with rotation*
0 The origin of the aperture is its center*
0 $1 length*
0 $2 width*
0 $3 Rotation angle, in degrees counterclockwise*
0 Add horizontal line*
21,1,$1,$2,0,0,$3*%
G04 Aperture macros list end*
G04 #@! TA.AperFunction,SMDPad,CuDef*
%ADD10RoundRect,0.250000X0.325000X0.450000X-0.325000X0.450000X-0.325000X-0.450000X0.325000X-0.450000X0*%
G04 #@! TD*
G04 #@! TA.AperFunction,SMDPad,CuDef*
%ADD11RotRect,0.900000X1.250000X165.000000*%
G04 #@! TD*
G04 #@! TA.AperFunction,SMDPad,CuDef*
%ADD12RotRect,0.800000X0.900000X165.000000*%
G04 #@! TD*
G04 #@! TA.AperFunction,SMDPad,CuDef*
%ADD13RoundRect,0.250000X0.350000X0.450000X-0.350000X0.450000X-0.350000X-0.450000X0.350000X-0.450000X0*%
G04 #@! TD*
G04 #@! TA.AperFunction,SMDPad,CuDef*
%ADD14RotRect,2.500000X5.100000X200.000000*%
G04 #@! TD*
G04 #@! TA.AperFunction,SMDPad,CuDef*
%ADD15C,10.200000*%
G04 #@! TD*
G04 #@! TA.AperFunction,SMDPad,CuDef*
%ADD16RoundRect,0.250000X-0.350000X-0.450000X0.350000X-0.450000X0.350000X0.450000X-0.350000X0.450000X0*%
G04 #@! TD*
G04 #@! TA.AperFunction,Conductor*
%ADD17C,0.127000*%
G04 #@! TD*
G04 #@! TA.AperFunction,Conductor*
%ADD18C,0.150000*%
G04 #@! TD*
G04 APERTURE END LIST*
D10*
X160215000Y-103330000D03*
X158165000Y-103330000D03*
D11*
X137610383Y-111858047D03*
X134712605Y-111081590D03*
X133263716Y-110693361D03*
D12*
X138855219Y-113200994D03*
X138285817Y-115326031D03*
X130944781Y-113359006D03*
X131514183Y-111233969D03*
D10*
X158322500Y-89020000D03*
X156272500Y-89020000D03*
D13*
X158140000Y-100860000D03*
X156140000Y-100860000D03*
D10*
X145930000Y-108390000D03*
X143880000Y-108390000D03*
X129222500Y-100340000D03*
X127172500Y-100340000D03*
X131615000Y-103140000D03*
X129565000Y-103140000D03*
X162730000Y-100180000D03*
X160680000Y-100180000D03*
D13*
X125070000Y-100350000D03*
X123070000Y-100350000D03*
X131710000Y-92560000D03*
X129710000Y-92560000D03*
X166100000Y-102310000D03*
X164100000Y-102310000D03*
D14*
X162170000Y-107530000D03*
X147886672Y-112728706D03*
D15*
X155028336Y-110129353D03*
D13*
X131530000Y-105760000D03*
X129530000Y-105760000D03*
X152000000Y-101230000D03*
X150000000Y-101230000D03*
D16*
X157540000Y-92380000D03*
X159540000Y-92380000D03*
D10*
X135892500Y-92550000D03*
X133842500Y-92550000D03*
D13*
X158380000Y-86550000D03*
X156380000Y-86550000D03*
X146020000Y-105160000D03*
X144020000Y-105160000D03*
D10*
X132950000Y-89410000D03*
X130900000Y-89410000D03*
X155465000Y-92490000D03*
X153415000Y-92490000D03*
D13*
X132970000Y-87050000D03*
X130970000Y-87050000D03*
D10*
X152002500Y-103770000D03*
X149952500Y-103770000D03*
X140305000Y-103810000D03*
X138255000Y-103810000D03*
D13*
X140350000Y-100830000D03*
X138350000Y-100830000D03*
D17*
X162170000Y-110900000D02*
X162170000Y-107530000D01*
X136032637Y-114431729D02*
X146183649Y-114431729D01*
X157650147Y-115419853D02*
X162170000Y-110900000D01*
X147886672Y-112728706D02*
X150577819Y-115419853D01*
X134712605Y-111081590D02*
X134712605Y-113111697D01*
X134712605Y-113111697D02*
X136032637Y-114431729D01*
X150577819Y-115419853D02*
X157650147Y-115419853D01*
X146183649Y-114431729D02*
X147886672Y-112728706D01*
X159540000Y-93520000D02*
X167250000Y-101230000D01*
X156140000Y-100860000D02*
X155619500Y-100339500D01*
X158912461Y-85659500D02*
X159540000Y-86287039D01*
X167250000Y-101230000D02*
X167250000Y-103330000D01*
X162847689Y-102310000D02*
X155028336Y-110129353D01*
X157270500Y-85659500D02*
X158912461Y-85659500D01*
X131860500Y-86159500D02*
X133502461Y-86159500D01*
X150000000Y-101230000D02*
X147950000Y-101230000D01*
X165450000Y-103660000D02*
X164100000Y-102310000D01*
X147950000Y-101230000D02*
X144020000Y-105160000D01*
X138350000Y-100830000D02*
X139240500Y-99939500D01*
X164100000Y-102310000D02*
X162847689Y-102310000D01*
X129710000Y-88310000D02*
X129710000Y-92560000D01*
X150890500Y-100339500D02*
X150000000Y-101230000D01*
X159540000Y-92380000D02*
X159540000Y-93520000D01*
X140882461Y-99939500D02*
X144020000Y-103077039D01*
X167250000Y-103330000D02*
X166920000Y-103660000D01*
X152649500Y-97369500D02*
X152649500Y-90280500D01*
X138350000Y-91007039D02*
X138350000Y-100830000D01*
X156140000Y-100860000D02*
X152649500Y-97369500D01*
X159540000Y-86287039D02*
X159540000Y-92380000D01*
X166920000Y-103660000D02*
X165450000Y-103660000D01*
X130970000Y-87050000D02*
X131860500Y-86159500D01*
X144020000Y-103077039D02*
X144020000Y-105160000D01*
X123070000Y-100350000D02*
X128480000Y-105760000D01*
X152649500Y-90280500D02*
X156380000Y-86550000D01*
X130970000Y-87050000D02*
X129710000Y-88310000D01*
X139240500Y-99939500D02*
X140882461Y-99939500D01*
X133502461Y-86159500D02*
X138350000Y-91007039D01*
X128480000Y-105760000D02*
X129530000Y-105760000D01*
X155619500Y-100339500D02*
X150890500Y-100339500D01*
X156380000Y-86550000D02*
X157270500Y-85659500D01*
X123070000Y-99200000D02*
X123070000Y-100350000D01*
X129710000Y-92560000D02*
X123070000Y-99200000D01*
X132950000Y-89410000D02*
X132950000Y-87070000D01*
X132950000Y-87070000D02*
X132970000Y-87050000D01*
X130500000Y-95790000D02*
X130500000Y-101240000D01*
X151965792Y-105710000D02*
X149952500Y-105710000D01*
X139609500Y-107022461D02*
X140977039Y-108390000D01*
D18*
X135567077Y-108390000D02*
X141090000Y-108390000D01*
D17*
X149952500Y-105710000D02*
X149952500Y-105765461D01*
X139609500Y-105164500D02*
X139609500Y-107022461D01*
X130500000Y-92347039D02*
X130500000Y-95790000D01*
X135685000Y-101240000D02*
X138255000Y-103810000D01*
X140977039Y-108390000D02*
X141090000Y-108390000D01*
X160680000Y-100180000D02*
X160469500Y-99969500D01*
X158165000Y-103330000D02*
X157349500Y-102514500D01*
X155620000Y-89020000D02*
X153410000Y-91230000D01*
X158165000Y-103330000D02*
X154345792Y-103330000D01*
X127180000Y-100332500D02*
X127172500Y-100340000D01*
X147160000Y-109360000D02*
X146810000Y-109710000D01*
X132652500Y-91360000D02*
X133842500Y-92550000D01*
D18*
X133263716Y-110693361D02*
X135567077Y-108390000D01*
D17*
X131820000Y-91360000D02*
X132652500Y-91360000D01*
X153415000Y-91235000D02*
X153415000Y-92490000D01*
X160680000Y-100180000D02*
X160680000Y-99102961D01*
X130500000Y-101240000D02*
X135685000Y-101240000D01*
X147160000Y-108557961D02*
X147160000Y-109360000D01*
X157349500Y-102514500D02*
X157349500Y-100227539D01*
X131487039Y-91360000D02*
X130500000Y-92347039D01*
X129565000Y-102175000D02*
X129565000Y-103140000D01*
X141090000Y-108390000D02*
X143880000Y-108390000D01*
X160469500Y-99969500D02*
X157607539Y-99969500D01*
X130900000Y-89410000D02*
X130900000Y-90440000D01*
X131820000Y-91360000D02*
X131487039Y-91360000D01*
X149952500Y-103770000D02*
X149952500Y-105710000D01*
X146810000Y-109710000D02*
X144550000Y-109710000D01*
X154067039Y-92490000D02*
X160680000Y-99102961D01*
X144550000Y-109710000D02*
X144540000Y-109720000D01*
X130500000Y-95790000D02*
X127180000Y-99110000D01*
X138255000Y-103810000D02*
X139609500Y-105164500D01*
X130900000Y-90440000D02*
X131820000Y-91360000D01*
X153410000Y-91230000D02*
X153415000Y-91235000D01*
X154345792Y-103330000D02*
X151965792Y-105710000D01*
X127180000Y-99110000D02*
X127180000Y-100332500D01*
X144540000Y-109720000D02*
X143880000Y-109060000D01*
X130500000Y-101240000D02*
X129565000Y-102175000D01*
X156272500Y-89020000D02*
X155620000Y-89020000D01*
X157349500Y-100227539D02*
X157607539Y-99969500D01*
X143880000Y-109060000D02*
X143880000Y-108390000D01*
X153415000Y-92490000D02*
X154067039Y-92490000D01*
X149952500Y-105765461D02*
X147160000Y-108557961D01*
X158380000Y-86550000D02*
X158322500Y-86607500D01*
X158322500Y-86607500D02*
X158322500Y-89020000D01*
X132940000Y-93790000D02*
X135220000Y-93790000D01*
X131710000Y-92560000D02*
X132940000Y-93790000D01*
X135220000Y-93790000D02*
X135892500Y-93117500D01*
X135892500Y-93117500D02*
X135892500Y-92550000D01*
X157430000Y-92490000D02*
X157540000Y-92380000D01*
X155465000Y-92490000D02*
X157430000Y-92490000D01*
X125070000Y-100350000D02*
X126360000Y-101640000D01*
X128620000Y-101640000D02*
X129222500Y-101037500D01*
X126360000Y-101640000D02*
X128620000Y-101640000D01*
X129222500Y-101037500D02*
X129222500Y-100340000D01*
X131615000Y-103140000D02*
X131615000Y-105675000D01*
X131615000Y-105675000D02*
X131530000Y-105760000D01*
X140305000Y-103810000D02*
X140305000Y-100875000D01*
X140305000Y-100875000D02*
X140350000Y-100830000D01*
X146020000Y-105160000D02*
X146020000Y-108300000D01*
X146020000Y-108300000D02*
X145930000Y-108390000D01*
X152000000Y-103767500D02*
X152002500Y-103770000D01*
X152000000Y-101230000D02*
X152000000Y-103767500D01*
X160215000Y-102935000D02*
X160215000Y-103330000D01*
X158140000Y-100860000D02*
X160215000Y-102935000D01*
X166100000Y-101220000D02*
X166100000Y-102310000D01*
X162730000Y-100180000D02*
X165060000Y-100180000D01*
X165060000Y-100180000D02*
X166100000Y-101220000D01*
M02*
