G04 #@! TF.GenerationSoftware,KiCad,Pcbnew,7.0.1-0*
G04 #@! TF.CreationDate,2023-08-23T15:24:57+02:00*
G04 #@! TF.ProjectId,pumpkin,70756d70-6b69-46e2-9e6b-696361645f70,rev?*
G04 #@! TF.SameCoordinates,Original*
G04 #@! TF.FileFunction,Copper,L1,Top*
G04 #@! TF.FilePolarity,Positive*
%FSLAX46Y46*%
G04 Gerber Fmt 4.6, Leading zero omitted, Abs format (unit mm)*
G04 Created by KiCad (PCBNEW 7.0.1-0) date 2023-08-23 15:24:57*
%MOMM*%
%LPD*%
G01*
G04 APERTURE LIST*
G04 APERTURE END LIST*
G04 #@! TA.AperFunction,Conductor*
G36*
X146348412Y-73107919D02*
G01*
X146391384Y-73133855D01*
X146420555Y-73174700D01*
X146580831Y-73537113D01*
X146611425Y-73606290D01*
X146611680Y-73606871D01*
X146626047Y-73639857D01*
X146666519Y-73732780D01*
X146667078Y-73734084D01*
X146719130Y-73857431D01*
X146719689Y-73858777D01*
X146769804Y-73981542D01*
X146770361Y-73982930D01*
X146818508Y-74105063D01*
X146819059Y-74106486D01*
X146865252Y-74228039D01*
X146865700Y-74229241D01*
X146910028Y-74350457D01*
X146910542Y-74351890D01*
X146952952Y-74472656D01*
X146953478Y-74474189D01*
X146993950Y-74594441D01*
X146994465Y-74596004D01*
X147033130Y-74716140D01*
X147033630Y-74717730D01*
X147070436Y-74837588D01*
X147070921Y-74839206D01*
X147105956Y-74959094D01*
X147106423Y-74960733D01*
X147139702Y-75080713D01*
X147140149Y-75082369D01*
X147171663Y-75202409D01*
X147172072Y-75204013D01*
X147189466Y-75274234D01*
X147201857Y-75324259D01*
X147202261Y-75325943D01*
X147230341Y-75446499D01*
X147230723Y-75448191D01*
X147257103Y-75569081D01*
X147257461Y-75570777D01*
X147282199Y-75692271D01*
X147282532Y-75693969D01*
X147305595Y-75815917D01*
X147305903Y-75817610D01*
X147327322Y-75940152D01*
X147327605Y-75941838D01*
X147347431Y-76065277D01*
X147347688Y-76066953D01*
X147365900Y-76191167D01*
X147366132Y-76192828D01*
X147382746Y-76317907D01*
X147382953Y-76319548D01*
X147398001Y-76445710D01*
X147398184Y-76447333D01*
X147411659Y-76574530D01*
X147411818Y-76576127D01*
X147423752Y-76704637D01*
X147423887Y-76706206D01*
X147434265Y-76835821D01*
X147434379Y-76837361D01*
X147443234Y-76968456D01*
X147443327Y-76969965D01*
X147450660Y-77102550D01*
X147450732Y-77104023D01*
X147456543Y-77237961D01*
X147456597Y-77239397D01*
X147460907Y-77375009D01*
X147460944Y-77376408D01*
X147463757Y-77513687D01*
X147463777Y-77515044D01*
X147465110Y-77654791D01*
X147465116Y-77655842D01*
X147465192Y-77727146D01*
X147465190Y-77727893D01*
X147464830Y-77800480D01*
X147464825Y-77801206D01*
X147464030Y-77874703D01*
X147464020Y-77875403D01*
X147462806Y-77949139D01*
X147462793Y-77949820D01*
X147461170Y-78023741D01*
X147461154Y-78024404D01*
X147459119Y-78098919D01*
X147459099Y-78099573D01*
X147456693Y-78173397D01*
X147456671Y-78174041D01*
X147453861Y-78248389D01*
X147453835Y-78249025D01*
X147450673Y-78322665D01*
X147450644Y-78323301D01*
X147447112Y-78396759D01*
X147447080Y-78397396D01*
X147443210Y-78470092D01*
X147443174Y-78470728D01*
X147438978Y-78542587D01*
X147438939Y-78543237D01*
X147434399Y-78614556D01*
X147434355Y-78615212D01*
X147429540Y-78685010D01*
X147429491Y-78685687D01*
X147424346Y-78754762D01*
X147424293Y-78755452D01*
X147418906Y-78822704D01*
X147418847Y-78823419D01*
X147413165Y-78889544D01*
X147413098Y-78890296D01*
X147407170Y-78954688D01*
X147407095Y-78955469D01*
X147400962Y-79017765D01*
X147400878Y-79018592D01*
X147394512Y-79079090D01*
X147394416Y-79079971D01*
X147387877Y-79138121D01*
X147387768Y-79139063D01*
X147381032Y-79195099D01*
X147380905Y-79196114D01*
X147374082Y-79249178D01*
X147373935Y-79250286D01*
X147366973Y-79300823D01*
X147366799Y-79302041D01*
X147360071Y-79347536D01*
X147359744Y-79349624D01*
X147345533Y-79435572D01*
X147344913Y-79439017D01*
X147331657Y-79507174D01*
X147330669Y-79511785D01*
X147318328Y-79564462D01*
X147317137Y-79569137D01*
X147312095Y-79587424D01*
X147311751Y-79588645D01*
X147306133Y-79608237D01*
X147303929Y-79614372D01*
X147294219Y-79649746D01*
X147293840Y-79651098D01*
X147286041Y-79678298D01*
X147285522Y-79679769D01*
X147284851Y-79682328D01*
X147284113Y-79685020D01*
X147283395Y-79687525D01*
X147283098Y-79689013D01*
X147275950Y-79716278D01*
X147275581Y-79717655D01*
X147268562Y-79743226D01*
X147267932Y-79745079D01*
X147267065Y-79748554D01*
X147266343Y-79751311D01*
X147265583Y-79754079D01*
X147265275Y-79755727D01*
X147258847Y-79781479D01*
X147258485Y-79782893D01*
X147252244Y-79806700D01*
X147251517Y-79808930D01*
X147242982Y-79845007D01*
X147242621Y-79846490D01*
X147237152Y-79868398D01*
X147236302Y-79871129D01*
X147228404Y-79906588D01*
X147228040Y-79908173D01*
X147223037Y-79929323D01*
X147221644Y-79934025D01*
X147214936Y-79966964D01*
X147214467Y-79969168D01*
X147207376Y-80001008D01*
X147205961Y-80011037D01*
X147205943Y-80011124D01*
X147202608Y-80023621D01*
X147197726Y-80051272D01*
X147197127Y-80054423D01*
X147193010Y-80074643D01*
X147189981Y-80089517D01*
X147186990Y-80106852D01*
X147186939Y-80107027D01*
X147186938Y-80107032D01*
X147186938Y-80107033D01*
X147186811Y-80107930D01*
X147183400Y-80131983D01*
X147182739Y-80136133D01*
X147178355Y-80160957D01*
X147178326Y-80161891D01*
X147175284Y-80185498D01*
X147173370Y-80193886D01*
X147171958Y-80211140D01*
X147171144Y-80218425D01*
X147167472Y-80244333D01*
X147166447Y-80244187D01*
X147164066Y-80261513D01*
X147162990Y-80265335D01*
X147163476Y-80308262D01*
X147163072Y-80319761D01*
X147162521Y-80326501D01*
X147163757Y-80346687D01*
X147163981Y-80352857D01*
X147164210Y-80373090D01*
X147165247Y-80379765D01*
X147166484Y-80391210D01*
X147169108Y-80434056D01*
X147171806Y-80441520D01*
X147178495Y-80470585D01*
X147182954Y-80512633D01*
X147199157Y-80551910D01*
X147203099Y-80562908D01*
X147211149Y-80589220D01*
X147215531Y-80603542D01*
X147222164Y-80613611D01*
X147233239Y-80634531D01*
X147237838Y-80645679D01*
X147264448Y-80678798D01*
X147271334Y-80688249D01*
X147294704Y-80723725D01*
X147294706Y-80723726D01*
X147294707Y-80723728D01*
X147303910Y-80731522D01*
X147320431Y-80748474D01*
X147327984Y-80757875D01*
X147362846Y-80782156D01*
X147372101Y-80789272D01*
X147404536Y-80816741D01*
X147415556Y-80821624D01*
X147436188Y-80833237D01*
X147446085Y-80840130D01*
X147486375Y-80853603D01*
X147497271Y-80857828D01*
X147536120Y-80875042D01*
X147576599Y-80880394D01*
X147605892Y-80887993D01*
X147611976Y-80890396D01*
X147655819Y-80894373D01*
X147666788Y-80895866D01*
X147674512Y-80897272D01*
X147693669Y-80897983D01*
X147700235Y-80898403D01*
X147719289Y-80900133D01*
X147727120Y-80899722D01*
X147738201Y-80899639D01*
X147766401Y-80900687D01*
X147782189Y-80901274D01*
X147782189Y-80901273D01*
X147782192Y-80901274D01*
X147785170Y-80900518D01*
X147801872Y-80897478D01*
X147809018Y-80896677D01*
X147809024Y-80896678D01*
X147826274Y-80894746D01*
X147833509Y-80894153D01*
X147850839Y-80893246D01*
X147858462Y-80891739D01*
X147882176Y-80889384D01*
X147882528Y-80889384D01*
X147907470Y-80885726D01*
X147911564Y-80885198D01*
X147936617Y-80882395D01*
X147936621Y-80882393D01*
X147939149Y-80882111D01*
X147951881Y-80880295D01*
X147951870Y-80880231D01*
X147960611Y-80878714D01*
X147960614Y-80878714D01*
X147987830Y-80873990D01*
X147991038Y-80873478D01*
X147991142Y-80873462D01*
X148018329Y-80869478D01*
X148018330Y-80869477D01*
X148023546Y-80868713D01*
X148035160Y-80866724D01*
X148035146Y-80866650D01*
X148043858Y-80864941D01*
X148043862Y-80864941D01*
X148072362Y-80859351D01*
X148074931Y-80858876D01*
X148103514Y-80853918D01*
X148103519Y-80853916D01*
X148104979Y-80853663D01*
X148116092Y-80850775D01*
X148118769Y-80850250D01*
X148127575Y-80849097D01*
X148130525Y-80848468D01*
X148130535Y-80848468D01*
X148160730Y-80842037D01*
X148162525Y-80841670D01*
X148192749Y-80835744D01*
X148192748Y-80835744D01*
X148196722Y-80834965D01*
X148200739Y-80833811D01*
X148223260Y-80828728D01*
X148224600Y-80828435D01*
X148255909Y-80821769D01*
X148255913Y-80821767D01*
X148261165Y-80820649D01*
X148263506Y-80819937D01*
X148286369Y-80814494D01*
X148287682Y-80814189D01*
X148312548Y-80808577D01*
X148314417Y-80808273D01*
X148317736Y-80807442D01*
X148320573Y-80806767D01*
X148324300Y-80805926D01*
X148326262Y-80805307D01*
X148350985Y-80799117D01*
X148352104Y-80798843D01*
X148383618Y-80791341D01*
X148383628Y-80791337D01*
X148388706Y-80790128D01*
X148391657Y-80789164D01*
X148416282Y-80782772D01*
X148417190Y-80782540D01*
X148449362Y-80774487D01*
X148449368Y-80774484D01*
X148456212Y-80772771D01*
X148459752Y-80771611D01*
X148712921Y-80708346D01*
X148715533Y-80707725D01*
X148990438Y-80645463D01*
X148992830Y-80644946D01*
X149281261Y-80585634D01*
X149283424Y-80585210D01*
X149584006Y-80529044D01*
X149585943Y-80528699D01*
X149897918Y-80475729D01*
X149899556Y-80475464D01*
X150221796Y-80425804D01*
X150223308Y-80425582D01*
X150554594Y-80379338D01*
X150556135Y-80379132D01*
X150895693Y-80336336D01*
X150897157Y-80336161D01*
X151243786Y-80296896D01*
X151245190Y-80296745D01*
X151598242Y-80261028D01*
X151599337Y-80260924D01*
X151957725Y-80228811D01*
X151958830Y-80228718D01*
X152321590Y-80200259D01*
X152322691Y-80200179D01*
X152688754Y-80175417D01*
X152689736Y-80175356D01*
X153058406Y-80154312D01*
X153059563Y-80154253D01*
X153429306Y-80136993D01*
X153430520Y-80136943D01*
X153801211Y-80123458D01*
X153802127Y-80123429D01*
X154172287Y-80113773D01*
X154173490Y-80113747D01*
X154542299Y-80107942D01*
X154543495Y-80107930D01*
X154909991Y-80106001D01*
X154911114Y-80106001D01*
X155274488Y-80107970D01*
X155275715Y-80107984D01*
X155634858Y-80113875D01*
X155636159Y-80113903D01*
X155990289Y-80123737D01*
X155991547Y-80123779D01*
X156339673Y-80137573D01*
X156340990Y-80137633D01*
X156681943Y-80155388D01*
X156683341Y-80155470D01*
X157016501Y-80177214D01*
X157018060Y-80177328D01*
X157341958Y-80203029D01*
X157343661Y-80203177D01*
X157657715Y-80232858D01*
X157659541Y-80233046D01*
X157962394Y-80266656D01*
X157964507Y-80266910D01*
X158255199Y-80304418D01*
X158257597Y-80304750D01*
X158535063Y-80346096D01*
X158537595Y-80346501D01*
X158800798Y-80391603D01*
X158803737Y-80392144D01*
X159051614Y-80440898D01*
X159054763Y-80441561D01*
X159534268Y-80549223D01*
X159537519Y-80550001D01*
X160005338Y-80668505D01*
X160008691Y-80669405D01*
X160364416Y-80770254D01*
X160464916Y-80798746D01*
X160468372Y-80799780D01*
X160899764Y-80935754D01*
X160913042Y-80939939D01*
X160916572Y-80941110D01*
X161349765Y-81092080D01*
X161353345Y-81093390D01*
X161450306Y-81130576D01*
X158180000Y-84980000D01*
X158180631Y-84980105D01*
X157789982Y-85440020D01*
X149329999Y-95689999D01*
X149119999Y-96039999D01*
X149120000Y-96039998D01*
X149120000Y-96040000D01*
X149690000Y-95980000D01*
X159700000Y-92050000D01*
X159675248Y-91031063D01*
X159640000Y-89580001D01*
X159633469Y-89555591D01*
X158420000Y-85020000D01*
X161606865Y-81190621D01*
X161775232Y-81255195D01*
X161778812Y-81256634D01*
X162044672Y-81368403D01*
X162189323Y-81429215D01*
X162193019Y-81430840D01*
X162592334Y-81614232D01*
X162596012Y-81615996D01*
X162666938Y-81651478D01*
X162984200Y-81810193D01*
X162987941Y-81812144D01*
X163365233Y-82017226D01*
X163368937Y-82019325D01*
X163735270Y-82235225D01*
X163738984Y-82237502D01*
X163955513Y-82375613D01*
X164094579Y-82464315D01*
X164098267Y-82466761D01*
X164443257Y-82704546D01*
X164446853Y-82707121D01*
X164781399Y-82955969D01*
X164784882Y-82958660D01*
X165109012Y-83218576D01*
X165112462Y-83221447D01*
X165426300Y-83492515D01*
X165429646Y-83495514D01*
X165502780Y-83563506D01*
X165733320Y-83777840D01*
X165736580Y-83780984D01*
X165867640Y-83912073D01*
X166030195Y-84074665D01*
X166033292Y-84077878D01*
X166206956Y-84264701D01*
X166316936Y-84383014D01*
X166319897Y-84386315D01*
X166593735Y-84703108D01*
X166596523Y-84706452D01*
X166717068Y-84856422D01*
X166860516Y-85034887D01*
X166863196Y-85038345D01*
X167117444Y-85378575D01*
X167119963Y-85382070D01*
X167364524Y-85734219D01*
X167366878Y-85737735D01*
X167601806Y-86101931D01*
X167603993Y-86105450D01*
X167829297Y-86481762D01*
X167831321Y-86485271D01*
X168047063Y-86873874D01*
X168048925Y-86877357D01*
X168255095Y-87278299D01*
X168256800Y-87281744D01*
X168453422Y-87695147D01*
X168454975Y-87698544D01*
X168642038Y-88124463D01*
X168643445Y-88127800D01*
X168820934Y-88566275D01*
X168822204Y-88569543D01*
X168990154Y-89020736D01*
X168991294Y-89023931D01*
X169150603Y-89490564D01*
X169151279Y-89492603D01*
X169220222Y-89706600D01*
X169220541Y-89707606D01*
X169287030Y-89920168D01*
X169287366Y-89921258D01*
X169350668Y-90130361D01*
X169351016Y-90131532D01*
X169411161Y-90337508D01*
X169411520Y-90338761D01*
X169468574Y-90542064D01*
X169468938Y-90543389D01*
X169523028Y-90744679D01*
X169523394Y-90746073D01*
X169574557Y-90945703D01*
X169574920Y-90947156D01*
X169623259Y-91145711D01*
X169623615Y-91147216D01*
X169669201Y-91345171D01*
X169669547Y-91346717D01*
X169712494Y-91544748D01*
X169712825Y-91546324D01*
X169753184Y-91744830D01*
X169753472Y-91746294D01*
X169791370Y-91946081D01*
X169791644Y-91947582D01*
X169827070Y-92148728D01*
X169827341Y-92150325D01*
X169846410Y-92267547D01*
X163269999Y-96879999D01*
X163270000Y-96879999D01*
X161255614Y-99223467D01*
X161243538Y-99235690D01*
X157148157Y-102842815D01*
X157130716Y-102855656D01*
X155797366Y-103668028D01*
X155738286Y-103686015D01*
X155677858Y-103673274D01*
X155631069Y-103632966D01*
X155609526Y-103575088D01*
X155597263Y-103458344D01*
X155380000Y-101390000D01*
X155379999Y-101390000D01*
X146870000Y-102829999D01*
X146870000Y-102830000D01*
X146715057Y-106306524D01*
X146697603Y-106364643D01*
X146654662Y-106407521D01*
X146596517Y-106424888D01*
X143586078Y-106554568D01*
X143522778Y-106540302D01*
X143475350Y-106496019D01*
X143456781Y-106433847D01*
X143360000Y-102640000D01*
X143359999Y-102639999D01*
X135010000Y-101499999D01*
X134808627Y-103678480D01*
X134787304Y-103737360D01*
X134739929Y-103778312D01*
X134678583Y-103790892D01*
X134618915Y-103771891D01*
X133451305Y-103034076D01*
X133164055Y-102852562D01*
X133156159Y-102847135D01*
X130768436Y-101066291D01*
X130752747Y-101052378D01*
X129410532Y-99642031D01*
X128790520Y-98990546D01*
X128789467Y-98989424D01*
X126520000Y-96540000D01*
X126519999Y-96540000D01*
X126260000Y-96690000D01*
X126310000Y-97970000D01*
X126960001Y-100400004D01*
X127469997Y-101559995D01*
X127469999Y-101559998D01*
X127470000Y-101560000D01*
X128400000Y-102920000D01*
X129900000Y-104520000D01*
X129900004Y-104520003D01*
X131279998Y-105579999D01*
X131944808Y-106015564D01*
X132730000Y-106530000D01*
X135140000Y-107770000D01*
X136116070Y-108080153D01*
X136210000Y-108110000D01*
X136969999Y-108270000D01*
X136969998Y-108269999D01*
X136970000Y-108270000D01*
X136826975Y-105457190D01*
X136842406Y-105390702D01*
X136890687Y-105342450D01*
X136957188Y-105327061D01*
X140784591Y-105524059D01*
X140843192Y-105542283D01*
X140885879Y-105586377D01*
X140902193Y-105645541D01*
X140990000Y-110269999D01*
X140990000Y-110270000D01*
X149360000Y-110230000D01*
X149252797Y-105581324D01*
X149267552Y-105519743D01*
X149310792Y-105473475D01*
X149371236Y-105454592D01*
X153372641Y-105276126D01*
X153439067Y-105291990D01*
X153487020Y-105340618D01*
X153501952Y-105407261D01*
X153329999Y-108339999D01*
X153330000Y-108339998D01*
X153330000Y-108340000D01*
X154190000Y-108130000D01*
X156910000Y-106860000D01*
X158810000Y-105620000D01*
X159980000Y-104810000D01*
X161230000Y-103610000D01*
X162610000Y-101870000D01*
X163450000Y-100090000D01*
X163920000Y-97970000D01*
X164000000Y-96470000D01*
X164605536Y-96052508D01*
X169870703Y-92422392D01*
X169889241Y-92546425D01*
X169891462Y-92561281D01*
X169891684Y-92562836D01*
X169920240Y-92771983D01*
X169920438Y-92773501D01*
X169946849Y-92986521D01*
X169947022Y-92987992D01*
X169971304Y-93205041D01*
X169971455Y-93206459D01*
X169993713Y-93428510D01*
X169993841Y-93429868D01*
X170014092Y-93657052D01*
X170014201Y-93658345D01*
X170032511Y-93891280D01*
X170032601Y-93892502D01*
X170049042Y-94131924D01*
X170049115Y-94133076D01*
X170063700Y-94378949D01*
X170063760Y-94380026D01*
X170076589Y-94633577D01*
X170076635Y-94634581D01*
X170087716Y-94895488D01*
X170087752Y-94896417D01*
X170097165Y-95165652D01*
X170097192Y-95166510D01*
X170104979Y-95444294D01*
X170104999Y-95445079D01*
X170111233Y-95732374D01*
X170111246Y-95733093D01*
X170115960Y-96029619D01*
X170115969Y-96030270D01*
X170119236Y-96337224D01*
X170119241Y-96337813D01*
X170121110Y-96654831D01*
X170121112Y-96655360D01*
X170121647Y-96983742D01*
X170121647Y-96984211D01*
X170120921Y-97321104D01*
X170120919Y-97321593D01*
X170118944Y-97645494D01*
X170118939Y-97646054D01*
X170115630Y-97957747D01*
X170115622Y-97958383D01*
X170110895Y-98258695D01*
X170110881Y-98259409D01*
X170104663Y-98548602D01*
X170104644Y-98549401D01*
X170096848Y-98828323D01*
X170096820Y-98829208D01*
X170087375Y-99098264D01*
X170087337Y-99099239D01*
X170076159Y-99359295D01*
X170076108Y-99360362D01*
X170063141Y-99611574D01*
X170063076Y-99612731D01*
X170048223Y-99856252D01*
X170048140Y-99857503D01*
X170031339Y-100093650D01*
X170031237Y-100094986D01*
X170012407Y-100324577D01*
X170012282Y-100325997D01*
X169991360Y-100549513D01*
X169991211Y-100551010D01*
X169968102Y-100769319D01*
X169967926Y-100770884D01*
X169942572Y-100984448D01*
X169942369Y-100986070D01*
X169914677Y-101195691D01*
X169914445Y-101197357D01*
X169884326Y-101403743D01*
X169884068Y-101405428D01*
X169883299Y-101410232D01*
X169851430Y-101609251D01*
X169851144Y-101610962D01*
X169815909Y-101812860D01*
X169815597Y-101814574D01*
X169777651Y-102015312D01*
X169777318Y-102017009D01*
X169736559Y-102217281D01*
X169736209Y-102218945D01*
X169692520Y-102419500D01*
X169692156Y-102421118D01*
X169645427Y-102622631D01*
X169645055Y-102624187D01*
X169595219Y-102827165D01*
X169594845Y-102828649D01*
X169541711Y-103034076D01*
X169541340Y-103035477D01*
X169484873Y-103243718D01*
X169484511Y-103245026D01*
X169424496Y-103457130D01*
X169424146Y-103458344D01*
X169360569Y-103674602D01*
X169360236Y-103675714D01*
X169292967Y-103896859D01*
X169292655Y-103897869D01*
X169221544Y-104124681D01*
X169221255Y-104125590D01*
X169146275Y-104358456D01*
X169146012Y-104359263D01*
X169068424Y-104594691D01*
X169067625Y-104597038D01*
X168849022Y-105218288D01*
X168847536Y-105222289D01*
X168612621Y-105823018D01*
X168610953Y-105827070D01*
X168358290Y-106411423D01*
X168356435Y-106415510D01*
X168085937Y-106983728D01*
X168083891Y-106987828D01*
X167795588Y-107539904D01*
X167793350Y-107544000D01*
X167487149Y-108080153D01*
X167484721Y-108084222D01*
X167160530Y-108604637D01*
X167157915Y-108608659D01*
X166815680Y-109113431D01*
X166812887Y-109117382D01*
X166452520Y-109606653D01*
X166449559Y-109610513D01*
X166070888Y-110084507D01*
X166067771Y-110088255D01*
X165670710Y-110547056D01*
X165667452Y-110550674D01*
X165251904Y-110994373D01*
X165248523Y-110997845D01*
X164814244Y-111426660D01*
X164810760Y-111429970D01*
X164357644Y-111843959D01*
X164354075Y-111847096D01*
X163881999Y-112246324D01*
X163878367Y-112249280D01*
X163387104Y-112633879D01*
X163383428Y-112636648D01*
X162872878Y-113006637D01*
X162869181Y-113009215D01*
X162339152Y-113364674D01*
X162335451Y-113367062D01*
X161785763Y-113708042D01*
X161782076Y-113710241D01*
X161212713Y-114036695D01*
X161209058Y-114038710D01*
X160619708Y-114350756D01*
X160616100Y-114352592D01*
X160006751Y-114650176D01*
X160003201Y-114651840D01*
X159373737Y-114934966D01*
X159370258Y-114936468D01*
X158720508Y-115205162D01*
X158717109Y-115206509D01*
X158047023Y-115460746D01*
X158043711Y-115461949D01*
X157353176Y-115701729D01*
X157349958Y-115702797D01*
X156638910Y-115928109D01*
X156635789Y-115929053D01*
X155904192Y-116139875D01*
X155901172Y-116140704D01*
X155148807Y-116337077D01*
X155145889Y-116337801D01*
X154372916Y-116519658D01*
X154370102Y-116520286D01*
X153576265Y-116687674D01*
X153573554Y-116688214D01*
X152757318Y-116841406D01*
X152755348Y-116841759D01*
X152654290Y-116859042D01*
X152652981Y-116859259D01*
X152547910Y-116876073D01*
X152546599Y-116876276D01*
X152438421Y-116892402D01*
X152437121Y-116892589D01*
X152325398Y-116908036D01*
X152324130Y-116908204D01*
X152208324Y-116923000D01*
X152207092Y-116923151D01*
X152086754Y-116937303D01*
X152085576Y-116937436D01*
X151959964Y-116950992D01*
X151958842Y-116951108D01*
X151827584Y-116964067D01*
X151826523Y-116964167D01*
X151689278Y-116976527D01*
X151688284Y-116976613D01*
X151544229Y-116988418D01*
X151543302Y-116988490D01*
X151392182Y-116999734D01*
X151391319Y-116999795D01*
X151232716Y-117010484D01*
X151231922Y-117010535D01*
X151065293Y-117020691D01*
X151064562Y-117020734D01*
X150889203Y-117030383D01*
X150888532Y-117030418D01*
X150704552Y-117039542D01*
X150703941Y-117039571D01*
X150510178Y-117048223D01*
X150509620Y-117048246D01*
X150306434Y-117056401D01*
X150305927Y-117056421D01*
X150091836Y-117064137D01*
X150091378Y-117064152D01*
X149867121Y-117071404D01*
X149866706Y-117071417D01*
X149630724Y-117078258D01*
X149630350Y-117078268D01*
X149383262Y-117084684D01*
X149382924Y-117084693D01*
X149122797Y-117090738D01*
X149122494Y-117090744D01*
X148850598Y-117096399D01*
X148850326Y-117096405D01*
X148564847Y-117101716D01*
X148564604Y-117101720D01*
X148265621Y-117106695D01*
X148265403Y-117106698D01*
X147952512Y-117111355D01*
X147952318Y-117111358D01*
X147624895Y-117115718D01*
X147624723Y-117115720D01*
X147283241Y-117119793D01*
X147283088Y-117119795D01*
X146925028Y-117123624D01*
X146924893Y-117123625D01*
X146552128Y-117127206D01*
X146162052Y-117130577D01*
X145755222Y-117133747D01*
X145755088Y-117133748D01*
X145466746Y-117135683D01*
X145466575Y-117135684D01*
X145177638Y-117137225D01*
X145177469Y-117137226D01*
X144890254Y-117138366D01*
X144890089Y-117138367D01*
X144603237Y-117139123D01*
X144603071Y-117139123D01*
X144319059Y-117139492D01*
X144318898Y-117139492D01*
X144037067Y-117139491D01*
X144036903Y-117139447D01*
X144036903Y-117139491D01*
X143757127Y-117139118D01*
X143756964Y-117139074D01*
X143756964Y-117139118D01*
X143480587Y-117138384D01*
X143480584Y-117138383D01*
X143480420Y-117138383D01*
X143210390Y-117137304D01*
X143207154Y-117137292D01*
X143207144Y-117137291D01*
X143206985Y-117137291D01*
X142939126Y-117135858D01*
X142938954Y-117135857D01*
X142674152Y-117134074D01*
X142673978Y-117134026D01*
X142673978Y-117134073D01*
X142414538Y-117131959D01*
X142414530Y-117131958D01*
X142414355Y-117131957D01*
X142160369Y-117129516D01*
X142160181Y-117129514D01*
X141911852Y-117126751D01*
X141911656Y-117126696D01*
X141911656Y-117126749D01*
X141669484Y-117123669D01*
X141669427Y-117123668D01*
X141669278Y-117123666D01*
X141434062Y-117120285D01*
X141433843Y-117120223D01*
X141433843Y-117120282D01*
X141205552Y-117116596D01*
X141205320Y-117116592D01*
X140984513Y-117112613D01*
X140984262Y-117112608D01*
X140771961Y-117108352D01*
X140771690Y-117108346D01*
X140567563Y-117103808D01*
X140567264Y-117103801D01*
X140372459Y-117099000D01*
X140372134Y-117098905D01*
X140372132Y-117098992D01*
X140186265Y-117093919D01*
X140185896Y-117093908D01*
X140010203Y-117088590D01*
X140009788Y-117088577D01*
X139844631Y-117083024D01*
X139844153Y-117083007D01*
X139689752Y-117077219D01*
X139689198Y-117077197D01*
X139546232Y-117071197D01*
X139545571Y-117071167D01*
X139414924Y-117064986D01*
X139414126Y-117064946D01*
X139296088Y-117058599D01*
X139295097Y-117058542D01*
X139190659Y-117052087D01*
X139189384Y-117052001D01*
X139099268Y-117045499D01*
X139097572Y-117045365D01*
X139023805Y-117039024D01*
X139021421Y-117038796D01*
X138964712Y-117032816D01*
X138961619Y-117032451D01*
X138056201Y-116913913D01*
X138053139Y-116913473D01*
X137169470Y-116775279D01*
X137166300Y-116774741D01*
X136304798Y-116617032D01*
X136301522Y-116616387D01*
X135462131Y-116439240D01*
X135458748Y-116438476D01*
X134641627Y-116242013D01*
X134638141Y-116241121D01*
X133843319Y-116025440D01*
X133839732Y-116024409D01*
X133067202Y-115789599D01*
X133063520Y-115788416D01*
X132313453Y-115534624D01*
X132309682Y-115533280D01*
X131581971Y-115260567D01*
X131578119Y-115259050D01*
X130872795Y-114967519D01*
X130868873Y-114965818D01*
X130573981Y-114831851D01*
X130185995Y-114655591D01*
X130182047Y-114653712D01*
X129521566Y-114324859D01*
X129517566Y-114322775D01*
X129253260Y-114178882D01*
X128879562Y-113975434D01*
X128875512Y-113973130D01*
X128505512Y-113753284D01*
X135648389Y-113753284D01*
X135689098Y-113918453D01*
X135750118Y-114034715D01*
X135768155Y-114069081D01*
X135880960Y-114196412D01*
X136020959Y-114293047D01*
X136180017Y-114353369D01*
X136306517Y-114368729D01*
X136391260Y-114368729D01*
X136391261Y-114368729D01*
X136517761Y-114353369D01*
X136676819Y-114293047D01*
X136816818Y-114196412D01*
X136929623Y-114069081D01*
X137008679Y-113918454D01*
X137049389Y-113753285D01*
X137049389Y-113583173D01*
X137008679Y-113418004D01*
X136929623Y-113267377D01*
X136816818Y-113140046D01*
X136816817Y-113140045D01*
X136816816Y-113140044D01*
X136676819Y-113043411D01*
X136517761Y-112983089D01*
X136466181Y-112976826D01*
X136391261Y-112967729D01*
X136306517Y-112967729D01*
X136243266Y-112975409D01*
X136180016Y-112983089D01*
X136020958Y-113043411D01*
X135880961Y-113140044D01*
X135768154Y-113267378D01*
X135689098Y-113418004D01*
X135664800Y-113516589D01*
X135649933Y-113576911D01*
X135648389Y-113583174D01*
X135648389Y-113753284D01*
X128505512Y-113753284D01*
X128259864Y-113607325D01*
X128255806Y-113604807D01*
X127662519Y-113220627D01*
X127658473Y-113217892D01*
X127325393Y-112983089D01*
X127316510Y-112976827D01*
X132750611Y-112976827D01*
X132756640Y-113001288D01*
X132791320Y-113141995D01*
X132815676Y-113188400D01*
X132870377Y-113292623D01*
X132982673Y-113419379D01*
X132983183Y-113419955D01*
X133028562Y-113451278D01*
X133123181Y-113516589D01*
X133282239Y-113576911D01*
X133408739Y-113592271D01*
X133493482Y-113592271D01*
X133493483Y-113592271D01*
X133619983Y-113576911D01*
X133779041Y-113516589D01*
X133919040Y-113419954D01*
X134031845Y-113292623D01*
X134110901Y-113141996D01*
X134151611Y-112976827D01*
X134151611Y-112806715D01*
X134110901Y-112641546D01*
X134031845Y-112490919D01*
X133919040Y-112363588D01*
X133919039Y-112363587D01*
X133919038Y-112363586D01*
X133779041Y-112266953D01*
X133619983Y-112206631D01*
X133619982Y-112206630D01*
X133493483Y-112191271D01*
X133408739Y-112191271D01*
X133345489Y-112198950D01*
X133282238Y-112206631D01*
X133123180Y-112266953D01*
X132983183Y-112363586D01*
X132870376Y-112490920D01*
X132791320Y-112641546D01*
X132770443Y-112726252D01*
X132750611Y-112806715D01*
X132750611Y-112976827D01*
X127316510Y-112976827D01*
X127087520Y-112815401D01*
X127083517Y-112812457D01*
X126963507Y-112720424D01*
X126664238Y-112490920D01*
X126534850Y-112391695D01*
X126530893Y-112388530D01*
X126004456Y-111949520D01*
X126000599Y-111946166D01*
X125496261Y-111488846D01*
X125492559Y-111485345D01*
X125010373Y-111009796D01*
X125006738Y-111006056D01*
X124637389Y-110609637D01*
X124546669Y-110512268D01*
X124543172Y-110508351D01*
X124339298Y-110270000D01*
X124105163Y-109996269D01*
X124101823Y-109992192D01*
X123685836Y-109461754D01*
X123682710Y-109457589D01*
X123288705Y-108908693D01*
X123285741Y-108904372D01*
X122913780Y-108337037D01*
X122911021Y-108332632D01*
X122873613Y-108270000D01*
X122561093Y-107746743D01*
X122558550Y-107742277D01*
X122495594Y-107626197D01*
X122230675Y-107137737D01*
X122228359Y-107133249D01*
X122157017Y-106987828D01*
X121922601Y-106510001D01*
X121920500Y-106505489D01*
X121888856Y-106433847D01*
X121636928Y-105863472D01*
X121635043Y-105858968D01*
X121521069Y-105570725D01*
X121373735Y-105198113D01*
X121372072Y-105193658D01*
X121275435Y-104918752D01*
X121133098Y-104513843D01*
X121131654Y-104509470D01*
X120913908Y-103806728D01*
X120913125Y-103804096D01*
X120851831Y-103588875D01*
X120851512Y-103587735D01*
X120815994Y-103458344D01*
X120791856Y-103370409D01*
X120791597Y-103369446D01*
X120734723Y-103153845D01*
X120734452Y-103152796D01*
X120680367Y-102938776D01*
X120680090Y-102937653D01*
X120628678Y-102724599D01*
X120628425Y-102723525D01*
X120579689Y-102511281D01*
X120579441Y-102510169D01*
X120533311Y-102298269D01*
X120533068Y-102297124D01*
X120489523Y-102085335D01*
X120489293Y-102084185D01*
X120448275Y-101872071D01*
X120448010Y-101870651D01*
X120447008Y-101865120D01*
X120409523Y-101658110D01*
X120409271Y-101656669D01*
X120405698Y-101635502D01*
X120373228Y-101443123D01*
X120372992Y-101441669D01*
X120339342Y-101226673D01*
X120339123Y-101225214D01*
X120335102Y-101197357D01*
X120307838Y-101008466D01*
X120307679Y-101007320D01*
X120278687Y-100788186D01*
X120278518Y-100786841D01*
X120276407Y-100769319D01*
X120251865Y-100565590D01*
X120251703Y-100564179D01*
X120250190Y-100550278D01*
X120227288Y-100339894D01*
X120227150Y-100338551D01*
X120210783Y-100170737D01*
X120204999Y-100111434D01*
X120204881Y-100110156D01*
X120203513Y-100094347D01*
X120184896Y-99879153D01*
X120184795Y-99877894D01*
X120174819Y-99746353D01*
X120166999Y-99643241D01*
X120166914Y-99642031D01*
X120151244Y-99402900D01*
X120151191Y-99402031D01*
X120137627Y-99158161D01*
X120137582Y-99157265D01*
X120126123Y-98908798D01*
X120126080Y-98907768D01*
X120125646Y-98896042D01*
X120116678Y-98653946D01*
X120116654Y-98653221D01*
X120109285Y-98393756D01*
X120109266Y-98392989D01*
X120103905Y-98127517D01*
X120103897Y-98127026D01*
X120100517Y-97855321D01*
X120100512Y-97854796D01*
X120099088Y-97576546D01*
X120099087Y-97576057D01*
X120099588Y-97291024D01*
X120099592Y-97290317D01*
X120099630Y-97285694D01*
X120101993Y-96997950D01*
X120106267Y-96697901D01*
X120112385Y-96389820D01*
X120120289Y-96074652D01*
X120120310Y-96073910D01*
X120120984Y-96052508D01*
X120132654Y-95682017D01*
X120132674Y-95681460D01*
X120147879Y-95299537D01*
X120147913Y-95298779D01*
X120166038Y-94926385D01*
X120166096Y-94925299D01*
X120167220Y-94905963D01*
X120187197Y-94562175D01*
X120187271Y-94561015D01*
X120211435Y-94206362D01*
X120211504Y-94205417D01*
X120238768Y-93859293D01*
X120238882Y-93857943D01*
X120249364Y-93741514D01*
X120269321Y-93519833D01*
X120269437Y-93518628D01*
X120303096Y-93188368D01*
X120303237Y-93187061D01*
X120340182Y-92864252D01*
X120340356Y-92862825D01*
X120380635Y-92547230D01*
X120380850Y-92545630D01*
X120394599Y-92448437D01*
X120424527Y-92236869D01*
X120424762Y-92235295D01*
X120471897Y-91933044D01*
X120472169Y-91931380D01*
X120522790Y-91635479D01*
X120523115Y-91633661D01*
X120577337Y-91343458D01*
X120577679Y-91341706D01*
X120635529Y-91057067D01*
X120635936Y-91055147D01*
X120697464Y-90775773D01*
X120697888Y-90773918D01*
X120763203Y-90499271D01*
X120763674Y-90497362D01*
X120832801Y-90227275D01*
X120833321Y-90225314D01*
X120906342Y-89959389D01*
X120906912Y-89957385D01*
X120983927Y-89695178D01*
X120984481Y-89693348D01*
X121065597Y-89434417D01*
X121066178Y-89432622D01*
X121151366Y-89176954D01*
X121152040Y-89174990D01*
X121241462Y-88922000D01*
X121242159Y-88920085D01*
X121335853Y-88669545D01*
X121336570Y-88667678D01*
X121346760Y-88641860D01*
X121386153Y-88589364D01*
X121446832Y-88564329D01*
X121511784Y-88573776D01*
X130100000Y-92330000D01*
X139830000Y-96140000D01*
X140110000Y-95810000D01*
X139780000Y-95380000D01*
X139690632Y-95277094D01*
X130670001Y-84890000D01*
X130669999Y-84890000D01*
X129293432Y-91553383D01*
X129287896Y-91569044D01*
X121581973Y-88069565D01*
X121645947Y-87922962D01*
X121646783Y-87921091D01*
X121758574Y-87676594D01*
X121759448Y-87674727D01*
X121850190Y-87484881D01*
X121875974Y-87430934D01*
X121876838Y-87429164D01*
X121998309Y-87185511D01*
X121999165Y-87183829D01*
X122125637Y-86940076D01*
X122126403Y-86938627D01*
X122256066Y-86697991D01*
X122257687Y-86695082D01*
X122511257Y-86254507D01*
X122513886Y-86250151D01*
X122519741Y-86240884D01*
X122780743Y-85827745D01*
X122783581Y-85823454D01*
X122823240Y-85766108D01*
X123065534Y-85415755D01*
X123068535Y-85411604D01*
X123365485Y-85018515D01*
X123368678Y-85014469D01*
X123680362Y-84636133D01*
X123683770Y-84632171D01*
X124010122Y-84268492D01*
X124013639Y-84264735D01*
X124354552Y-83915701D01*
X124358212Y-83912109D01*
X124713500Y-83577801D01*
X124717353Y-83574327D01*
X125086894Y-83254775D01*
X125090842Y-83251501D01*
X125474636Y-82946653D01*
X125478611Y-82943627D01*
X125876464Y-82653601D01*
X125880560Y-82650741D01*
X126292382Y-82375589D01*
X126296545Y-82372927D01*
X126722207Y-82112736D01*
X126726442Y-82110261D01*
X127165843Y-81865105D01*
X127170056Y-81862861D01*
X127623134Y-81632810D01*
X127627377Y-81630757D01*
X128093973Y-81415936D01*
X128098198Y-81414087D01*
X128578178Y-81214613D01*
X128582390Y-81212952D01*
X129075691Y-81028918D01*
X129079763Y-81027481D01*
X129586202Y-80859027D01*
X129590337Y-80857733D01*
X130109693Y-80705012D01*
X130113695Y-80703909D01*
X130645995Y-80567005D01*
X130649919Y-80566066D01*
X131194847Y-80445153D01*
X131198706Y-80444363D01*
X131756116Y-80339572D01*
X131759882Y-80338925D01*
X132329596Y-80250389D01*
X132333315Y-80249869D01*
X132915255Y-80177710D01*
X132918843Y-80177320D01*
X133512571Y-80121701D01*
X133516145Y-80121419D01*
X134121776Y-80082443D01*
X134125145Y-80082274D01*
X134742341Y-80060087D01*
X134745643Y-80060014D01*
X135374166Y-80054746D01*
X135377367Y-80054762D01*
X136017092Y-80066536D01*
X136020175Y-80066632D01*
X136670848Y-80095574D01*
X136673928Y-80095751D01*
X137337415Y-80142127D01*
X137339543Y-80142295D01*
X137503071Y-80156673D01*
X137504154Y-80156774D01*
X137681630Y-80174130D01*
X137682268Y-80174195D01*
X137870715Y-80194228D01*
X137871197Y-80194280D01*
X138066944Y-80216543D01*
X138069594Y-80216845D01*
X138070393Y-80216939D01*
X138082744Y-80218425D01*
X138277427Y-80241849D01*
X138277568Y-80241866D01*
X138492820Y-80269042D01*
X138493418Y-80269119D01*
X138715848Y-80298400D01*
X138716247Y-80298453D01*
X138945037Y-80329704D01*
X138945216Y-80329729D01*
X139179465Y-80362806D01*
X139179886Y-80362866D01*
X139418879Y-80397643D01*
X139419098Y-80397675D01*
X139662122Y-80434035D01*
X139908083Y-80471797D01*
X140156396Y-80510861D01*
X140156578Y-80510890D01*
X140406153Y-80551075D01*
X140656079Y-80592226D01*
X140906270Y-80634325D01*
X141154974Y-80677078D01*
X141401614Y-80720381D01*
X141401641Y-80720386D01*
X141402087Y-80720465D01*
X141610683Y-80757875D01*
X141646275Y-80764258D01*
X141646707Y-80764336D01*
X141887069Y-80808377D01*
X142088707Y-80846141D01*
X142123555Y-80852668D01*
X142124057Y-80852763D01*
X142130087Y-80853918D01*
X142355032Y-80897008D01*
X142580386Y-80941202D01*
X142580554Y-80941236D01*
X142799021Y-80985151D01*
X142799569Y-80985263D01*
X143009900Y-81028666D01*
X143010431Y-81028777D01*
X143212396Y-81071642D01*
X143212856Y-81071741D01*
X143346419Y-81100967D01*
X143405469Y-81113888D01*
X143406326Y-81114079D01*
X143467763Y-81127979D01*
X143588461Y-81155287D01*
X143589158Y-81155447D01*
X143760203Y-81195611D01*
X143761150Y-81195839D01*
X143919655Y-81234643D01*
X143921006Y-81234982D01*
X143961301Y-81245328D01*
X144066119Y-81272240D01*
X144067522Y-81272611D01*
X144160048Y-81297718D01*
X144160232Y-81297782D01*
X144168695Y-81300075D01*
X144168701Y-81300078D01*
X144202592Y-81309262D01*
X144235158Y-81318099D01*
X144246334Y-81321710D01*
X144251847Y-81323786D01*
X144256304Y-81324769D01*
X144263817Y-81327540D01*
X144275915Y-81330040D01*
X144275917Y-81330041D01*
X144286336Y-81332194D01*
X144293647Y-81333938D01*
X144298321Y-81335205D01*
X144299606Y-81335362D01*
X144309605Y-81337004D01*
X144342413Y-81343784D01*
X144343824Y-81344085D01*
X144374779Y-81350919D01*
X144374786Y-81350919D01*
X144378073Y-81351645D01*
X144381432Y-81351850D01*
X144381441Y-81351852D01*
X144413167Y-81353790D01*
X144414440Y-81353876D01*
X144482235Y-81358933D01*
X144482239Y-81358932D01*
X144499923Y-81360251D01*
X144503431Y-81360034D01*
X144541766Y-81363429D01*
X144576934Y-81356399D01*
X144591078Y-81354412D01*
X144626832Y-81351482D01*
X144680277Y-81330912D01*
X144704196Y-81324366D01*
X144720742Y-81321579D01*
X144753861Y-81305477D01*
X144766703Y-81300105D01*
X144767331Y-81299883D01*
X144790642Y-81287660D01*
X144794005Y-81285962D01*
X144856127Y-81255763D01*
X144858003Y-81254450D01*
X144862761Y-81249849D01*
X144862765Y-81249848D01*
X144907700Y-81206406D01*
X144910422Y-81203855D01*
X144911212Y-81203135D01*
X144929890Y-81186147D01*
X144930304Y-81185644D01*
X144939758Y-81175414D01*
X144966240Y-81149815D01*
X144969873Y-81143419D01*
X144991396Y-81115623D01*
X145006523Y-81100967D01*
X145037155Y-81046905D01*
X145039103Y-81043590D01*
X145071429Y-80990522D01*
X145080687Y-80955921D01*
X145084701Y-80943561D01*
X145093601Y-80920375D01*
X145093873Y-80919674D01*
X145097453Y-80910519D01*
X145106202Y-80888145D01*
X145106203Y-80888137D01*
X145106769Y-80886692D01*
X145107115Y-80885170D01*
X145107118Y-80885163D01*
X145114616Y-80852200D01*
X145114775Y-80851514D01*
X145115488Y-80848468D01*
X145129906Y-80786864D01*
X145131315Y-80781414D01*
X145134479Y-80770254D01*
X145135484Y-80762755D01*
X145137470Y-80751746D01*
X145139153Y-80744352D01*
X145140723Y-80724973D01*
X145141418Y-80718515D01*
X145142240Y-80712393D01*
X145147442Y-80673614D01*
X145149666Y-80661583D01*
X145150803Y-80656771D01*
X145150802Y-80656771D01*
X145150804Y-80656767D01*
X145152769Y-80634799D01*
X145153377Y-80629368D01*
X145155491Y-80613611D01*
X145156305Y-80607544D01*
X145156304Y-80607539D01*
X145157238Y-80600584D01*
X145156691Y-80600547D01*
X145159025Y-80566054D01*
X145159252Y-80562703D01*
X145159462Y-80560032D01*
X145159705Y-80557322D01*
X145162050Y-80531131D01*
X145162049Y-80531122D01*
X145162390Y-80527319D01*
X145162387Y-80524896D01*
X145163243Y-80507973D01*
X145164029Y-80492401D01*
X145164155Y-80490291D01*
X145165408Y-80471797D01*
X145166211Y-80459942D01*
X145166210Y-80459939D01*
X145166531Y-80455213D01*
X145166495Y-80453330D01*
X145166634Y-80449588D01*
X145167807Y-80417896D01*
X145167868Y-80416499D01*
X145169472Y-80384806D01*
X145169471Y-80384797D01*
X145169754Y-80379206D01*
X145169712Y-80377922D01*
X145169889Y-80371210D01*
X145169890Y-80371207D01*
X145170753Y-80338542D01*
X145170786Y-80337511D01*
X145171994Y-80304943D01*
X145171993Y-80304941D01*
X145172323Y-80296069D01*
X145173225Y-80296102D01*
X145173227Y-80296060D01*
X145172234Y-80296043D01*
X145172395Y-80287161D01*
X145172997Y-80253898D01*
X145173019Y-80252919D01*
X145173247Y-80244333D01*
X145173898Y-80219745D01*
X145173897Y-80219744D01*
X145174046Y-80214156D01*
X145173807Y-80209297D01*
X145173848Y-80207053D01*
X145174176Y-80203262D01*
X145174249Y-80197006D01*
X145174250Y-80197001D01*
X145174646Y-80163058D01*
X145174657Y-80162370D01*
X145174666Y-80161891D01*
X145175270Y-80128627D01*
X145175269Y-80128622D01*
X145175383Y-80122361D01*
X145175168Y-80118551D01*
X145175267Y-80110054D01*
X145175506Y-80107108D01*
X145175552Y-80100259D01*
X145175553Y-80100255D01*
X145175786Y-80065741D01*
X145176192Y-80031131D01*
X145176191Y-80031129D01*
X145176272Y-80024289D01*
X145176087Y-80021313D01*
X145176190Y-80006118D01*
X145176362Y-80003870D01*
X145176492Y-79961759D01*
X145176494Y-79961300D01*
X145176553Y-79952574D01*
X145176728Y-79926788D01*
X145176727Y-79926784D01*
X145176777Y-79919472D01*
X145176628Y-79917237D01*
X145176697Y-79894836D01*
X145176816Y-79893217D01*
X145176819Y-79885457D01*
X145176820Y-79885452D01*
X145176834Y-79850305D01*
X145176895Y-79830410D01*
X145176966Y-79807466D01*
X145176850Y-79805806D01*
X145176861Y-79775954D01*
X145176942Y-79774831D01*
X145176930Y-79766665D01*
X145176931Y-79766659D01*
X145176879Y-79731419D01*
X145176893Y-79695989D01*
X145176892Y-79695987D01*
X145176896Y-79687880D01*
X145176812Y-79686736D01*
X145176757Y-79649086D01*
X145176807Y-79648382D01*
X145176784Y-79639820D01*
X145176786Y-79639812D01*
X145176691Y-79603692D01*
X145176640Y-79568798D01*
X145176639Y-79568795D01*
X145176627Y-79560287D01*
X145176573Y-79559561D01*
X145176452Y-79513814D01*
X145176479Y-79513458D01*
X145176335Y-79469083D01*
X145176330Y-79467222D01*
X145176241Y-79433287D01*
X145176240Y-79433280D01*
X145176217Y-79424600D01*
X145176190Y-79424233D01*
X145176007Y-79367844D01*
X145176229Y-79364477D01*
X145176170Y-79357895D01*
X145176171Y-79357891D01*
X145175865Y-79323496D01*
X145175754Y-79289129D01*
X145175733Y-79282558D01*
X145175470Y-79279174D01*
X145175445Y-79276321D01*
X145173907Y-79103511D01*
X145174277Y-79097031D01*
X145173912Y-79079090D01*
X145173528Y-79060190D01*
X145173512Y-79059099D01*
X145173224Y-79026628D01*
X145173222Y-79026621D01*
X145173183Y-79022123D01*
X145172624Y-79015630D01*
X145171123Y-78941694D01*
X145169123Y-78843145D01*
X145169429Y-78836389D01*
X145169077Y-78825475D01*
X145168252Y-78799852D01*
X145168216Y-78798428D01*
X145167477Y-78762035D01*
X145166819Y-78755320D01*
X145164556Y-78685010D01*
X145161421Y-78587600D01*
X145161653Y-78580600D01*
X145161466Y-78576417D01*
X145161467Y-78576411D01*
X145160035Y-78544329D01*
X145159985Y-78543005D01*
X145158958Y-78511063D01*
X145158957Y-78511060D01*
X145158823Y-78506874D01*
X145158055Y-78499903D01*
X145150787Y-78336928D01*
X145150936Y-78329637D01*
X145150704Y-78325618D01*
X145150705Y-78325615D01*
X145148876Y-78293857D01*
X145148796Y-78292277D01*
X145147204Y-78256560D01*
X145146315Y-78249337D01*
X145137203Y-78091013D01*
X145137258Y-78083449D01*
X145134741Y-78048035D01*
X145134634Y-78046367D01*
X145132601Y-78011049D01*
X145131579Y-78003568D01*
X145120654Y-77849883D01*
X145120605Y-77842047D01*
X145120292Y-77838384D01*
X145120293Y-77838380D01*
X145117612Y-77806928D01*
X145117499Y-77805473D01*
X145115263Y-77774017D01*
X145115262Y-77774013D01*
X145115003Y-77770367D01*
X145113834Y-77762598D01*
X145110812Y-77727146D01*
X145101125Y-77613497D01*
X145100956Y-77605338D01*
X145097501Y-77570801D01*
X145097333Y-77568985D01*
X145094388Y-77534428D01*
X145093058Y-77526384D01*
X145078594Y-77381786D01*
X145078291Y-77373322D01*
X145077913Y-77370056D01*
X145077914Y-77370050D01*
X145074346Y-77339162D01*
X145074160Y-77337443D01*
X145071064Y-77306486D01*
X145071062Y-77306478D01*
X145070736Y-77303218D01*
X145069233Y-77294903D01*
X145053040Y-77154727D01*
X145052588Y-77145959D01*
X145052184Y-77142899D01*
X145052185Y-77142891D01*
X145048149Y-77112266D01*
X145047938Y-77110559D01*
X145044383Y-77079772D01*
X145044381Y-77079765D01*
X145044028Y-77076706D01*
X145042327Y-77068066D01*
X145040462Y-77053911D01*
X145024443Y-76932310D01*
X145023824Y-76923203D01*
X145023401Y-76920359D01*
X145023401Y-76920355D01*
X145018889Y-76890024D01*
X145018615Y-76888067D01*
X145014243Y-76854871D01*
X145012332Y-76845938D01*
X145005302Y-76798673D01*
X144992777Y-76714473D01*
X144991976Y-76705046D01*
X144986552Y-76672484D01*
X144986215Y-76670350D01*
X144981351Y-76637648D01*
X144979210Y-76628416D01*
X144958024Y-76501231D01*
X144957017Y-76491453D01*
X144951075Y-76459393D01*
X144950684Y-76457168D01*
X144945335Y-76425053D01*
X144942944Y-76415511D01*
X144933914Y-76366784D01*
X144920148Y-76292499D01*
X144918914Y-76282370D01*
X144912464Y-76250903D01*
X144912014Y-76248597D01*
X144908399Y-76229089D01*
X144906569Y-76219214D01*
X144906568Y-76219212D01*
X144906159Y-76217003D01*
X144903497Y-76207161D01*
X144900385Y-76191981D01*
X144879125Y-76088259D01*
X144877643Y-76077791D01*
X144870676Y-76046921D01*
X144870170Y-76044573D01*
X144864211Y-76015498D01*
X144864208Y-76015491D01*
X144863803Y-76013512D01*
X144860847Y-76003366D01*
X144834921Y-75888479D01*
X144833167Y-75877667D01*
X144831605Y-75871356D01*
X144825663Y-75847347D01*
X144825109Y-75845003D01*
X144818631Y-75816294D01*
X144818630Y-75816292D01*
X144818238Y-75814553D01*
X144814960Y-75804096D01*
X144787502Y-75693137D01*
X144785450Y-75681975D01*
X144785042Y-75680467D01*
X144785042Y-75680464D01*
X144777433Y-75652327D01*
X144776772Y-75649770D01*
X144769418Y-75620052D01*
X144765799Y-75609303D01*
X144755381Y-75570777D01*
X144736839Y-75502205D01*
X144734461Y-75490704D01*
X144725939Y-75461779D01*
X144725208Y-75459193D01*
X144717672Y-75431322D01*
X144717669Y-75431317D01*
X144717320Y-75430023D01*
X144713328Y-75418973D01*
X144686653Y-75328432D01*
X144682895Y-75315677D01*
X144680160Y-75303825D01*
X144679823Y-75302775D01*
X144679823Y-75302770D01*
X144671123Y-75275600D01*
X144670276Y-75272843D01*
X144667100Y-75262063D01*
X144662224Y-75245510D01*
X144662222Y-75245506D01*
X144661910Y-75244446D01*
X144657519Y-75233109D01*
X144655595Y-75227099D01*
X144625623Y-75133489D01*
X144622509Y-75121326D01*
X144622220Y-75120495D01*
X144622220Y-75120492D01*
X144612970Y-75093850D01*
X144612027Y-75091025D01*
X144608984Y-75081522D01*
X144603413Y-75064120D01*
X144603412Y-75064118D01*
X144603141Y-75063271D01*
X144598325Y-75051670D01*
X144564994Y-74955667D01*
X144561463Y-74943174D01*
X144561234Y-74942564D01*
X144551406Y-74916413D01*
X144550371Y-74913552D01*
X144541203Y-74887143D01*
X144541199Y-74887137D01*
X144540985Y-74886518D01*
X144535717Y-74874665D01*
X144527122Y-74851793D01*
X144500952Y-74782155D01*
X144496986Y-74769389D01*
X144496823Y-74768988D01*
X144496822Y-74768983D01*
X144486422Y-74743376D01*
X144485283Y-74740463D01*
X144475549Y-74714559D01*
X144475544Y-74714550D01*
X144475392Y-74714145D01*
X144469647Y-74702066D01*
X144433471Y-74612987D01*
X144429026Y-74599928D01*
X144428944Y-74599741D01*
X144428943Y-74599737D01*
X144417974Y-74574710D01*
X144416681Y-74571647D01*
X144406338Y-74546177D01*
X144400080Y-74533883D01*
X144392635Y-74516897D01*
X144362501Y-74448141D01*
X144357556Y-74434832D01*
X144348939Y-74416594D01*
X144346013Y-74410400D01*
X144344576Y-74407243D01*
X144335092Y-74385604D01*
X144333762Y-74382568D01*
X144333749Y-74382547D01*
X144326973Y-74370101D01*
X144287991Y-74287595D01*
X144282714Y-74274556D01*
X144282612Y-74274256D01*
X144270540Y-74250534D01*
X144268936Y-74247265D01*
X144260502Y-74229413D01*
X144257549Y-74223162D01*
X144257362Y-74222880D01*
X144250287Y-74210732D01*
X144209916Y-74131394D01*
X144204304Y-74118640D01*
X144204078Y-74118036D01*
X144197754Y-74106489D01*
X144191429Y-74094939D01*
X144189673Y-74091614D01*
X144177736Y-74068156D01*
X144177369Y-74067635D01*
X144169994Y-74055801D01*
X144128224Y-73979531D01*
X144122273Y-73967063D01*
X144121912Y-73966183D01*
X144108686Y-73943733D01*
X144106799Y-73940411D01*
X144094290Y-73917570D01*
X144093713Y-73916802D01*
X144086057Y-73905319D01*
X144052471Y-73848307D01*
X144042883Y-73832031D01*
X144036593Y-73819862D01*
X144036081Y-73818721D01*
X144022317Y-73796993D01*
X144020228Y-73793574D01*
X144007182Y-73771428D01*
X144006395Y-73770445D01*
X143998443Y-73759305D01*
X143953856Y-73688916D01*
X143947234Y-73677072D01*
X143946557Y-73675689D01*
X143932244Y-73654671D01*
X143929982Y-73651227D01*
X143916377Y-73629749D01*
X143916376Y-73629748D01*
X143916375Y-73629746D01*
X143915370Y-73628570D01*
X143907118Y-73617776D01*
X143901482Y-73609500D01*
X143861126Y-73550237D01*
X143854165Y-73538716D01*
X143853312Y-73537113D01*
X143846145Y-73527323D01*
X143838449Y-73516810D01*
X143836011Y-73513358D01*
X143821855Y-73492570D01*
X143820629Y-73491229D01*
X143812101Y-73480820D01*
X143810787Y-73479025D01*
X143787502Y-73418584D01*
X143797871Y-73354645D01*
X143839067Y-73304657D01*
X143899845Y-73282263D01*
X143925363Y-73279992D01*
X143936526Y-73278999D01*
X143936529Y-73279035D01*
X143936651Y-73278987D01*
X143996133Y-73273756D01*
X144057852Y-73268388D01*
X144120081Y-73263033D01*
X144184269Y-73257566D01*
X144249108Y-73252098D01*
X144315993Y-73246511D01*
X144381866Y-73241061D01*
X144451133Y-73235382D01*
X144518133Y-73229939D01*
X144587643Y-73224341D01*
X144657228Y-73218790D01*
X144726699Y-73213297D01*
X144796750Y-73207809D01*
X144865963Y-73202438D01*
X144936562Y-73197011D01*
X145004672Y-73191825D01*
X145073904Y-73186609D01*
X145142295Y-73181510D01*
X145209918Y-73176523D01*
X145275960Y-73171709D01*
X145341777Y-73166970D01*
X145407270Y-73162316D01*
X145470362Y-73157894D01*
X145470364Y-73157924D01*
X145470491Y-73157885D01*
X145533234Y-73153555D01*
X146298683Y-73101143D01*
X146348412Y-73107919D01*
G37*
G04 #@! TD.AperFunction*
G04 #@! TA.AperFunction,Conductor*
G36*
X129287896Y-91569044D02*
G01*
X129282229Y-91585082D01*
X129173289Y-91796555D01*
X129132321Y-91842620D01*
X129074233Y-91863264D01*
X129013382Y-91853385D01*
X121503729Y-88570094D01*
X121454029Y-88530645D01*
X121430350Y-88471775D01*
X121438893Y-88408903D01*
X121538041Y-88170282D01*
X121538789Y-88168526D01*
X121581973Y-88069565D01*
X129287896Y-91569044D01*
G37*
G04 #@! TD.AperFunction*
G04 #@! TA.AperFunction,Conductor*
G36*
X161606863Y-81190621D02*
G01*
X158420000Y-85020000D01*
X158180632Y-84980105D01*
X158180000Y-84980000D01*
X161450305Y-81130576D01*
X161606863Y-81190621D01*
G37*
G04 #@! TD.AperFunction*
G04 #@! TA.AperFunction,Conductor*
G36*
X169860415Y-92353631D02*
G01*
X169860662Y-92355213D01*
X169870702Y-92422392D01*
X164000000Y-96470000D01*
X163999998Y-96470000D01*
X163270008Y-96879993D01*
X169846410Y-92267547D01*
X169860415Y-92353631D01*
G37*
G04 #@! TD.AperFunction*
M02*
