  0
SECTION
  2
HEADER
  9
$ACADVER
  1
AC1014
  9
$HANDSEED
  5
FFFF
  9
$INSUNITS
 70
     0
  9
$MEASUREMENT
 70
     1
  0
ENDSEC
  0
SECTION
  2
TABLES
  0
TABLE
  2
VPORT
  5
8
330
0
100
AcDbSymbolTable
 70
     4
  0
VPORT
  5
2E
330
8
100
AcDbSymbolTableRecord
100
AcDbViewportTableRecord
  2
*ACTIVE
 70
     0
 10
0.0
 20
0.0
 11
1.0
 21
1.0
 12
210.0
 22
148.5
 13
0.0
 23
0.0
 14
10.0
 24
10.0
 15
10.0
 25
10.0
 16
0.0
 26
0.0
 36
1.0
 17
0.0
 27
0.0
 37
0.0
 40
341.0
 41
1.24
 42
50.0
 43
0.0
 44
0.0
 50
0.0
 51
0.0
 71
     0
 72
   100
 73
     1
 74
     3
 75
     0
 76
     0
 77
     0
 78
     0
  0
ENDTAB
  0
TABLE
  2
LTYPE
  5
5
330
0
100
AcDbSymbolTable
 70
     1
  0
LTYPE
  5
14
330
5
100
AcDbSymbolTableRecord
100
AcDbLinetypeTableRecord
  2
BYBLOCK
 70
     0
  3

 72
    65
 73
     0
 40
0.0
  0
LTYPE
  5
15
330
5
100
AcDbSymbolTableRecord
100
AcDbLinetypeTableRecord
  2
BYLAYER
 70
     0
  3

 72
    65
 73
     0
 40
0.0
  0
LTYPE
  5
16
330
5
100
AcDbSymbolTableRecord
100
AcDbLinetypeTableRecord
  2
CONTINUOUS
 70
     0
  3
Solid line
 72
    65
 73
     0
 40
0.0
  0
ENDTAB
  0
TABLE
  2
LAYER
  5
2
100
AcDbSymbolTable
 70
2
  0
LAYER
  5
50
100
AcDbSymbolTableRecord
100
AcDbLayerTableRecord
  2
0
 70
0
  6
CONTINUOUS
  0
LAYER
  5
51
100
AcDbSymbolTableRecord
100
AcDbLayerTableRecord
  2
Image
 70
0
  6
CONTINUOUS
  0
ENDTAB
  0
TABLE
  2
STYLE
  5
3
330
0
100
AcDbSymbolTable
 70
     1
  0
STYLE
  5
11
330
3
100
AcDbSymbolTableRecord
100
AcDbTextStyleTableRecord
  2
STANDARD
 70
     0
 40
0.0
 41
1.0
 50
0.0
 71
     0
 42
2.5
  3
txt
  4

  0
ENDTAB
  0
TABLE
  2
VIEW
  5
6
330
0
100
AcDbSymbolTable
 70
     0
  0
ENDTAB
  0
TABLE
  2
UCS
  5
7
330
0
100
AcDbSymbolTable
 70
     0
  0
ENDTAB
  0
TABLE
  2
APPID
  5
9
330
0
100
AcDbSymbolTable
 70
     2
  0
APPID
  5
12
330
9
100
AcDbSymbolTableRecord
100
AcDbRegAppTableRecord
  2
ACAD
 70
     0
  0
ENDTAB
  0
TABLE
  2
DIMSTYLE
  5
A
330
0
100
AcDbSymbolTable
 70
     1
  0
DIMSTYLE
105
27
330
A
100
AcDbSymbolTableRecord
100
AcDbDimStyleTableRecord
  2
ISO-25
 70
     0
  3

  4

  5

  6

  7

 40
1.0
 41
2.5
 42
0.625
 43
3.75
 44
1.25
 45
0.0
 46
0.0
 47
0.0
 48
0.0
140
2.5
141
2.5
142
0.0
143
0.03937007874016
144
1.0
145
0.0
146
1.0
147
0.625
 71
     0
 72
     0
 73
     0
 74
     0
 75
     0
 76
     0
 77
     1
 78
     8
170
     0
171
     3
172
     1
173
     0
174
     0
175
     0
176
     0
177
     0
178
     0
270
     2
271
     2
272
     2
273
     2
274
     3
340
11
275
     0
280
     0
281
     0
282
     0
283
     0
284
     8
285
     0
286
     0
287
     3
288
     0
  0
ENDTAB
  0
TABLE
  2
BLOCK_RECORD
  5
1
330
0
100
AcDbSymbolTable
 70
     1
  0
BLOCK_RECORD
  5
1F
330
1
100
AcDbSymbolTableRecord
100
AcDbBlockTableRecord
  2
*MODEL_SPACE
  0
BLOCK_RECORD
  5
1B
330
1
100
AcDbSymbolTableRecord
100
AcDbBlockTableRecord
  2
*PAPER_SPACE
  0
ENDTAB
  0
ENDSEC
  0
SECTION
  2
BLOCKS
  0
BLOCK
  5
20
330
1F
100
AcDbEntity
  8
0
100
AcDbBlockBegin
  2
*MODEL_SPACE
 70
     0
 10
0.0
 20
0.0
 30
0.0
  3
*MODEL_SPACE
  1

  0
ENDBLK
  5
21
330
1F
100
AcDbEntity
  8
0
100
AcDbBlockEnd
  0
BLOCK
  5
1C
330
1B
100
AcDbEntity
 67
     1
  8
0
100
AcDbBlockBegin
  2
*PAPER_SPACE
  1

  0
ENDBLK
  5
1D
330
1B
100
AcDbEntity
 67
     1
  8
0
100
AcDbBlockEnd
  0
ENDSEC
  0
SECTION
  2
ENTITIES
  0
SPLINE
  5
100
100
AcDbEntity
  8
Image
 62
7
100
AcDbSpline
 70
8
 71
3
 72
8
 73
4
 74
0
 40
0
 40
0
 40
0
 40
0
 40
1
 40
1
 40
1
 40
1
 10
103.101090
 20
18.821590
 30
0.0
 10
105.973290
 20
19.025470
 30
0.0
 10
109.731000
 20
19.192270
 30
0.0
 10
111.451560
 20
19.192270
 30
0.0
  0
LWPOLYLINE
  5
101
100
AcDbEntity
  8
Image
 62
7
100
AcDbPolyline
 90
3
 70
0
 10
97.878906
 20
9.693520
 30
0.0
 10
97.878906
 20
18.450910
 30
0.0
 10
103.101090
 20
18.821590
 30
0.0
  0
SPLINE
  5
102
100
AcDbEntity
  8
Image
 62
7
100
AcDbSpline
 70
8
 71
3
 72
8
 73
4
 74
0
 40
0
 40
0
 40
0
 40
0
 40
1
 40
1
 40
1
 40
1
 10
115.277940
 20
8.586640
 30
0.0
 10
121.894300
 20
10.247230
 30
0.0
 10
134.320490
 20
17.457340
 30
0.0
 10
140.273550
 20
23.089950
 30
0.0
  0
SPLINE
  5
103
100
AcDbEntity
  8
Image
 62
7
100
AcDbSpline
 70
8
 71
3
 72
8
 73
4
 74
0
 40
0
 40
0
 40
0
 40
0
 40
1
 40
1
 40
1
 40
1
 10
140.273550
 20
23.089950
 30
0.0
 10
144.214190
 20
26.818460
 30
0.0
 10
148.650190
 20
33.280630
 30
0.0
 10
150.304850
 20
37.703110
 30
0.0
  0
SPLINE
  5
104
100
AcDbEntity
  8
Image
 62
7
100
AcDbSpline
 70
8
 71
3
 72
8
 73
4
 74
0
 40
0
 40
0
 40
0
 40
0
 40
1
 40
1
 40
1
 40
1
 10
150.304850
 20
37.703110
 30
0.0
 10
151.381730
 20
40.581330
 30
0.0
 10
153.037010
 20
50.370430
 30
0.0
 10
152.532170
 20
50.875270
 30
0.0
  0
SPLINE
  5
105
100
AcDbEntity
  8
Image
 62
7
100
AcDbSpline
 70
8
 71
3
 72
8
 73
4
 74
0
 40
0
 40
0
 40
0
 40
0
 40
1
 40
1
 40
1
 40
1
 10
152.532170
 20
50.875270
 30
0.0
 10
152.404520
 20
51.002860
 30
0.0
 10
150.388640
 20
48.775550
 30
0.0
 10
148.052320
 20
45.925670
 30
0.0
  0
SPLINE
  5
106
100
AcDbEntity
  8
Image
 62
7
100
AcDbSpline
 70
8
 71
3
 72
8
 73
4
 74
0
 40
0
 40
0
 40
0
 40
0
 40
1
 40
1
 40
1
 40
1
 10
148.052320
 20
45.925670
 30
0.0
 10
139.944870
 20
36.036060
 30
0.0
 10
129.137650
 20
26.662100
 30
0.0
 10
122.838460
 20
24.055700
 30
0.0
  0
LWPOLYLINE
  5
107
100
AcDbEntity
  8
Image
 62
7
100
AcDbPolyline
 90
5
 70
0
 10
111.451560
 20
19.192270
 30
0.0
 10
114.579850
 20
19.192270
 30
0.0
 10
114.176740
 20
13.700670
 30
0.0
 10
113.773630
 20
8.209070
 30
0.0
 10
115.277940
 20
8.586640
 30
0.0
  0
SPLINE
  5
108
100
AcDbEntity
  8
Image
 62
7
100
AcDbSpline
 70
8
 71
3
 72
8
 73
4
 74
0
 40
0
 40
0
 40
0
 40
0
 40
1
 40
1
 40
1
 40
1
 10
120.699070
 20
27.742170
 30
0.0
 10
120.699070
 20
31.729350
 30
0.0
 10
120.571420
 20
32.309320
 30
0.0
 10
119.700680
 20
32.278350
 30
0.0
  0
SPLINE
  5
109
100
AcDbEntity
  8
Image
 62
7
100
AcDbSpline
 70
8
 71
3
 72
8
 73
4
 74
0
 40
0
 40
0
 40
0
 40
0
 40
1
 40
1
 40
1
 40
1
 10
119.700680
 20
32.278350
 30
0.0
 10
119.151570
 20
32.258850
 30
0.0
 10
112.284130
 20
31.159180
 30
0.0
 10
104.439710
 20
29.834700
 30
0.0
  0
LWPOLYLINE
  5
10a
100
AcDbEntity
  8
Image
 62
7
100
AcDbPolyline
 90
3
 70
0
 10
122.838460
 20
24.055700
 30
0.0
 10
120.699070
 20
23.170490
 30
0.0
 10
120.699070
 20
27.742170
 30
0.0
  0
SPLINE
  5
10b
100
AcDbEntity
  8
Image
 62
7
100
AcDbSpline
 70
8
 71
3
 72
8
 73
4
 74
0
 40
0
 40
0
 40
0
 40
0
 40
1
 40
1
 40
1
 40
1
 10
61.651908
 20
29.834700
 30
0.0
 10
53.807479
 20
31.159180
 30
0.0
 10
46.920488
 20
32.258820
 30
0.0
 10
46.347485
 20
32.278350
 30
0.0
  0
SPLINE
  5
10c
100
AcDbEntity
  8
Image
 62
7
100
AcDbSpline
 70
8
 71
3
 72
8
 73
4
 74
0
 40
0
 40
0
 40
0
 40
0
 40
1
 40
1
 40
1
 40
1
 10
46.347485
 20
32.278350
 30
0.0
 10
45.407683
 20
32.310450
 30
0.0
 10
45.323881
 20
31.866800
 30
0.0
 10
45.491729
 20
27.748490
 30
0.0
  0
SPLINE
  5
10d
100
AcDbEntity
  8
Image
 62
7
100
AcDbSpline
 70
8
 71
3
 72
8
 73
4
 74
0
 40
0
 40
0
 40
0
 40
0
 40
1
 40
1
 40
1
 40
1
 10
45.491729
 20
27.748490
 30
0.0
 10
45.594063
 20
25.237530
 30
0.0
 10
45.549439
 20
23.186970
 30
0.0
 10
45.392549
 20
23.191680
 30
0.0
  0
SPLINE
  5
10e
100
AcDbEntity
  8
Image
 62
7
100
AcDbSpline
 70
8
 71
3
 72
8
 73
4
 74
0
 40
0
 40
0
 40
0
 40
0
 40
1
 40
1
 40
1
 40
1
 10
45.392549
 20
23.191680
 30
0.0
 10
44.325593
 20
23.223780
 30
0.0
 10
37.579750
 20
27.192380
 30
0.0
 10
34.223110
 20
29.762790
 30
0.0
  0
SPLINE
  5
10f
100
AcDbEntity
  8
Image
 62
7
100
AcDbSpline
 70
8
 71
3
 72
8
 73
4
 74
0
 40
0
 40
0
 40
0
 40
0
 40
1
 40
1
 40
1
 40
1
 10
34.223110
 20
29.762790
 30
0.0
 10
29.685664
 20
33.237420
 30
0.0
 10
21.397840
 20
41.631180
 30
0.0
 10
17.211350
 20
46.991990
 30
0.0
  0
SPLINE
  5
110
100
AcDbEntity
  8
Image
 62
7
100
AcDbSpline
 70
8
 71
3
 72
8
 73
4
 74
0
 40
0
 40
0
 40
0
 40
0
 40
1
 40
1
 40
1
 40
1
 10
17.211350
 20
46.991990
 30
0.0
 10
15.685138
 20
48.946300
 30
0.0
 10
14.263699
 20
50.438540
 30
0.0
 10
14.052591
 20
50.308070
 30
0.0
  0
SPLINE
  5
111
100
AcDbEntity
  8
Image
 62
7
100
AcDbSpline
 70
8
 71
3
 72
8
 73
4
 74
0
 40
0
 40
0
 40
0
 40
0
 40
1
 40
1
 40
1
 40
1
 10
14.052591
 20
50.308070
 30
0.0
 10
13.358480
 20
49.879080
 30
0.0
 10
14.445708
 20
41.796580
 30
0.0
 10
15.662097
 20
38.342850
 30
0.0
  0
SPLINE
  5
112
100
AcDbEntity
  8
Image
 62
7
100
AcDbSpline
 70
8
 71
3
 72
8
 73
4
 74
0
 40
0
 40
0
 40
0
 40
0
 40
1
 40
1
 40
1
 40
1
 10
15.662097
 20
38.342850
 30
0.0
 10
18.885216
 20
29.191400
 30
0.0
 10
26.271022
 20
21.131120
 30
0.0
 10
37.377130
 20
14.644810
 30
0.0
  0
SPLINE
  5
113
100
AcDbEntity
  8
Image
 62
7
100
AcDbSpline
 70
8
 71
3
 72
8
 73
4
 74
0
 40
0
 40
0
 40
0
 40
0
 40
1
 40
1
 40
1
 40
1
 10
37.377130
 20
14.644810
 30
0.0
 10
41.183543
 20
12.421740
 30
0.0
 10
50.458938
 20
8.352700
 30
0.0
 10
51.720003
 20
8.352700
 30
0.0
  0
SPLINE
  5
114
100
AcDbEntity
  8
Image
 62
7
100
AcDbSpline
 70
8
 71
3
 72
8
 73
4
 74
0
 40
0
 40
0
 40
0
 40
0
 40
1
 40
1
 40
1
 40
1
 10
51.720003
 20
8.352700
 30
0.0
 10
52.234198
 20
8.352700
 30
0.0
 10
52.311175
 20
9.716000
 30
0.0
 10
52.026037
 20
13.772480
 30
0.0
  0
LWPOLYLINE
  5
115
100
AcDbEntity
  8
Image
 62
7
100
AcDbPolyline
 90
9
 70
0
 10
104.439710
 20
29.834700
 30
0.0
 10
90.177106
 20
27.426540
 30
0.0
 10
90.016916
 20
20.456880
 30
0.0
 10
89.856736
 20
13.487230
 30
0.0
 10
83.045806
 20
13.487230
 30
0.0
 10
76.234876
 20
13.487230
 30
0.0
 10
76.074696
 20
20.456880
 30
0.0
 10
75.914506
 20
27.426540
 30
0.0
 10
61.651908
 20
29.834700
 30
0.0
  0
SPLINE
  5
116
100
AcDbEntity
  8
Image
 62
7
100
AcDbSpline
 70
8
 71
3
 72
8
 73
4
 74
0
 40
0
 40
0
 40
0
 40
0
 40
1
 40
1
 40
1
 40
1
 10
54.706705
 20
19.192270
 30
0.0
 10
56.390610
 20
19.192270
 30
0.0
 10
60.118328
 20
19.025470
 30
0.0
 10
62.990530
 20
18.821590
 30
0.0
  0
LWPOLYLINE
  5
117
100
AcDbEntity
  8
Image
 62
7
100
AcDbPolyline
 90
3
 70
0
 10
52.026037
 20
13.772480
 30
0.0
 10
51.645062
 20
19.192270
 30
0.0
 10
54.706705
 20
19.192270
 30
0.0
  0
SPLINE
  5
118
100
AcDbEntity
  8
Image
 62
7
100
AcDbSpline
 70
8
 71
3
 72
8
 73
4
 74
0
 40
0
 40
0
 40
0
 40
0
 40
1
 40
1
 40
1
 40
1
 10
47.050745
 20
73.434413
 30
0.0
 10
33.771963
 20
89.480805
 30
0.0
 10
30.825067
 20
92.755116
 30
0.0
 10
30.459892
 20
91.868558
 30
0.0
  0
SPLINE
  5
119
100
AcDbEntity
  8
Image
 62
7
100
AcDbSpline
 70
8
 71
3
 72
8
 73
4
 74
0
 40
0
 40
0
 40
0
 40
0
 40
1
 40
1
 40
1
 40
1
 10
30.459892
 20
91.868558
 30
0.0
 10
29.606509
 20
89.796732
 30
0.0
 10
25.452162
 20
68.539210
 30
0.0
 10
25.864574
 20
68.354630
 30
0.0
  0
SPLINE
  5
11a
100
AcDbEntity
  8
Image
 62
7
100
AcDbSpline
 70
8
 71
3
 72
8
 73
4
 74
0
 40
0
 40
0
 40
0
 40
0
 40
1
 40
1
 40
1
 40
1
 10
25.864574
 20
68.354630
 30
0.0
 10
28.887851
 20
67.001480
 30
0.0
 10
62.847645
 20
53.666140
 30
0.0
 10
62.995235
 20
53.774160
 30
0.0
  0
SPLINE
  5
11b
100
AcDbEntity
  8
Image
 62
7
100
AcDbSpline
 70
8
 71
3
 72
8
 73
4
 74
0
 40
0
 40
0
 40
0
 40
0
 40
1
 40
1
 40
1
 40
1
 10
62.995235
 20
53.774160
 30
0.0
 10
63.106501
 20
53.855560
 30
0.0
 10
55.931489
 20
62.702710
 30
0.0
 10
47.050745
 20
73.434413
 30
0.0
  0
LWPOLYLINE
  5
11c
100
AcDbEntity
  8
Image
 62
7
100
AcDbPolyline
 90
7
 70
0
 10
62.990530
 20
18.821590
 30
0.0
 10
68.212702
 20
18.450910
 30
0.0
 10
68.212702
 20
9.693520
 30
0.0
 10
68.212702
 20
0.936150
 30
0.0
 10
83.045806
 20
0.936150
 30
0.0
 10
97.878906
 20
0.936150
 30
0.0
 10
97.878906
 20
9.693520
 30
0.0
  0
SPLINE
  5
11d
100
AcDbEntity
  8
Image
 62
7
100
AcDbSpline
 70
8
 71
3
 72
8
 73
4
 74
0
 40
0
 40
0
 40
0
 40
0
 40
1
 40
1
 40
1
 40
1
 10
132.298670
 20
66.647750
 30
0.0
 10
136.223550
 20
68.164690
 30
0.0
 10
136.732190
 20
68.523580
 30
0.0
 10
136.481010
 20
69.598800
 30
0.0
  0
SPLINE
  5
11e
100
AcDbEntity
  8
Image
 62
7
100
AcDbSpline
 70
8
 71
3
 72
8
 73
4
 74
0
 40
0
 40
0
 40
0
 40
0
 40
1
 40
1
 40
1
 40
1
 10
136.481010
 20
69.598800
 30
0.0
 10
136.323710
 20
70.272030
 30
0.0
 10
135.232960
 20
75.572319
 30
0.0
 10
134.057080
 20
81.377196
 30
0.0
  0
SPLINE
  5
11f
100
AcDbEntity
  8
Image
 62
7
100
AcDbSpline
 70
8
 71
3
 72
8
 73
4
 74
0
 40
0
 40
0
 40
0
 40
0
 40
1
 40
1
 40
1
 40
1
 10
134.057080
 20
81.377196
 30
0.0
 10
132.881220
 20
87.182074
 30
0.0
 10
131.747550
 20
92.133031
 30
0.0
 10
131.537810
 20
92.379330
 30
0.0
  0
SPLINE
  5
120
100
AcDbEntity
  8
Image
 62
7
100
AcDbSpline
 70
8
 71
3
 72
8
 73
4
 74
0
 40
0
 40
0
 40
0
 40
0
 40
1
 40
1
 40
1
 40
1
 10
131.537810
 20
92.379330
 30
0.0
 10
131.225250
 20
92.746369
 30
0.0
 10
99.019916
 20
54.509860
 30
0.0
 10
99.019916
 20
53.771720
 30
0.0
  0
SPLINE
  5
121
100
AcDbEntity
  8
Image
 62
7
100
AcDbSpline
 70
8
 71
3
 72
8
 73
4
 74
0
 40
0
 40
0
 40
0
 40
0
 40
1
 40
1
 40
1
 40
1
 10
99.019916
 20
53.771720
 30
0.0
 10
99.019916
 20
53.646570
 30
0.0
 10
105.502270
 20
56.103910
 30
0.0
 10
113.425140
 20
59.232480
 30
0.0
  0
SPLINE
  5
122
100
AcDbEntity
  8
Image
 62
7
100
AcDbSpline
 70
8
 71
3
 72
8
 73
4
 74
0
 40
0
 40
0
 40
0
 40
0
 40
1
 40
1
 40
1
 40
1
 10
113.425140
 20
59.232480
 30
0.0
 10
121.348010
 20
62.361050
 30
0.0
 10
129.841100
 20
65.697920
 30
0.0
 10
132.298670
 20
66.647750
 30
0.0
  0
LWPOLYLINE
  5
123
100
AcDbEntity
  8
Image
 62
7
100
AcDbPolyline
 90
1
 70
1
 10
47.050745
 20
73.434413
 30
0.0
  0
LWPOLYLINE
  5
124
100
AcDbEntity
  8
Image
 62
7
100
AcDbPolyline
 90
1
 70
1
 10
132.298670
 20
66.647750
 30
0.0
  0
ENDSEC
  0
SECTION
  2
OBJECTS
  0
DICTIONARY
  5
C
330
0
100
AcDbDictionary
  3
ACAD_GROUP
350
D
  3
ACAD_MLINESTYLE
350
17
  0
DICTIONARY
  5
D
330
C
100
AcDbDictionary
  0
DICTIONARY
  5
1A
330
C
100
AcDbDictionary
  0
DICTIONARY
  5
17
330
C
100
AcDbDictionary
  3
STANDARD
350
18
  0
DICTIONARY
  5
19
330
C
100
AcDbDictionary
  0
ENDSEC
  0
EOF
